<?xml version="1.0" encoding="UTF-8" standalone="no"?>
<!-- Created with Inkscape (http://www.inkscape.org/) -->

<svg
   xmlns:dc="http://purl.org/dc/elements/1.1/"
   xmlns:cc="http://creativecommons.org/ns#"
   xmlns:rdf="http://www.w3.org/1999/02/22-rdf-syntax-ns#"
   xmlns:svg="http://www.w3.org/2000/svg"
   xmlns="http://www.w3.org/2000/svg"
   xmlns:sodipodi="http://sodipodi.sourceforge.net/DTD/sodipodi-0.dtd"
   xmlns:inkscape="http://www.inkscape.org/namespaces/inkscape"
   version="1.0"
   width="100"
   height="100"
   id="svg3751"
   inkscape:version="0.48.4 r9939"
   sodipodi:docname="icon-l-hibernate.svg"
   inkscape:export-filename="/home/robert/xbmcremote/apps/sailfish/qml/icons/icon-l-hibernate.png"
   inkscape:export-xdpi="84.599998"
   inkscape:export-ydpi="84.599998">
  <metadata
     id="metadata5857">
    <rdf:RDF>
      <cc:Work
         rdf:about="">
        <dc:format>image/svg+xml</dc:format>
        <dc:type
           rdf:resource="http://purl.org/dc/dcmitype/StillImage" />
        <dc:title></dc:title>
      </cc:Work>
    </rdf:RDF>
  </metadata>
  <sodipodi:namedview
     pagecolor="#ffffff"
     bordercolor="#666666"
     borderopacity="1"
     objecttolerance="10"
     gridtolerance="10"
     guidetolerance="10"
     inkscape:pageopacity="0"
     inkscape:pageshadow="2"
     inkscape:window-width="1920"
     inkscape:window-height="1180"
     id="namedview5855"
     showgrid="false"
     inkscape:zoom="1.0791927"
     inkscape:cx="-66.26051"
     inkscape:cy="109.341"
     inkscape:window-x="-2"
     inkscape:window-y="-3"
     inkscape:window-maximized="1"
     inkscape:current-layer="svg3751" />
  <defs
     id="defs3753" />
  <path
     inkscape:connector-curvature="0"
     style="fill:none;stroke:#ffffff;stroke-width:2;stroke-linecap:round;stroke-linejoin:miter;stroke-miterlimit:4;stroke-opacity:0.47058823999999999;stroke-dasharray:none;stroke-dashoffset:0;display:inline"
     id="path3749"
     d="m 49.056597,92.731041 c -0.471778,-0.392076 -0.474546,-0.413274 -0.568899,-4.356586 l -0.09482,-3.962551 -3.60304,2.083364 c -3.675295,2.125159 -4.357726,2.369691 -5.081348,1.820913 -0.515085,-0.390635 -0.642491,-1.547744 -0.221627,-2.012811 0.188231,-0.207977 2.290421,-1.498511 4.671535,-2.867835 l 4.329297,-2.489718 0,-5.017911 c 0,-4.335508 -0.03789,-5.003393 -0.278585,-4.911043 -0.153218,0.05879 -2.281289,1.262617 -4.729039,2.675177 -3.00274,1.732803 -4.634879,2.568228 -5.017395,2.568228 -1.129748,0 -1.784478,-1.632894 -0.957676,-2.388409 0.217436,-0.198697 2.756152,-1.728324 5.6416,-3.399134 l 5.246278,-3.037856 0.05337,-2.218428 0.05338,-2.218429 -1.287494,0.690042 c -1.216494,0.651966 -1.31869,0.675043 -1.853169,0.418873 -0.311125,-0.149104 -0.677776,-0.504983 -0.814792,-0.790871 -0.41932,-0.874901 0.0084,-1.419799 2.095358,-2.669217 l 1.848163,-1.106475 0,-3.502882 0,-3.502923 -0.805945,0.486185 c -0.44327,0.267409 -1.808631,1.05632 -3.034136,1.753161 l -2.228199,1.267016 0,2.248505 c 0,2.134438 -0.02361,2.272103 -0.465463,2.713972 -0.593229,0.593213 -1.320351,0.593213 -1.913575,0 -0.406106,-0.406114 -0.465464,-0.635847 -0.465464,-1.801515 0,-0.734837 -0.05388,-1.336049 -0.119722,-1.336049 -0.213332,0 -3.573735,1.960218 -3.717458,2.168514 -0.07663,0.111028 -0.140628,3.075772 -0.142224,6.588253 l -0.0029,6.386396 -0.499663,0.393035 c -0.622826,0.489905 -1.222266,0.500144 -1.80234,0.03076 l -0.447685,-0.362239 -0.09482,-5.686035 -0.09482,-5.686075 -4.305947,2.492637 -4.305952,2.492637 -0.05562,5.279042 -0.05562,5.279041 -0.532068,0.457388 c -0.641099,0.551178 -1.262001,0.582894 -1.864753,0.09527 -0.44223,-0.357759 -0.448841,-0.416592 -0.542502,-4.828852 l -0.09482,-4.466654 -3.274513,1.889506 c -1.800984,1.039242 -3.490232,1.889506 -3.753886,1.889506 -0.659134,0 -1.410296,-0.79447 -1.410296,-1.491591 0,-0.754194 0.502087,-1.14867 4.018064,-3.156762 1.596959,-0.912097 2.929384,-1.680289 2.960944,-1.707126 0.03156,-0.02684 -1.54714,-0.966531 -3.508222,-2.088244 -1.961082,-1.121672 -3.714943,-2.207549 -3.897462,-2.413046 -0.856211,-0.963931 0.02224,-2.583787 1.266268,-2.334975 0.425428,0.08507 6.444046,3.421372 8.852872,4.907403 0.237417,0.146464 1.210531,-0.333442 4.361574,-2.151116 2.230783,-1.286814 4.201155,-2.435764 4.378603,-2.55327 0.271649,-0.17982 -0.401634,-0.630369 -4.261152,-2.851437 -2.521079,-1.450835 -4.735639,-2.789763 -4.921246,-2.975342 -0.523025,-0.523061 -0.440478,-1.556344 0.162193,-2.03041 0.274813,-0.216176 0.683259,-0.393035 0.907661,-0.393035 0.224403,0 2.793763,1.376003 5.709693,3.057853 2.915929,1.681809 5.407751,3.098528 5.53738,3.148283 0.233981,0.08979 3.843592,-1.836752 3.843688,-2.051488 2.4e-5,-0.06163 -0.424832,-0.343321 -0.944137,-0.625969 -1.51748,-0.825906 -1.947267,-1.861868 -1.134395,-2.73441 0.627377,-0.673403 1.396745,-0.532379 3.400518,0.62321 l 1.796024,1.035762 0.620662,-0.366198 c 0.341369,-0.201417 1.688329,-0.983329 2.993241,-1.737643 1.304912,-0.754275 2.308114,-1.429678 2.229335,-1.50095 -0.07878,-0.07123 -1.430586,-0.867862 -3.004016,-1.770319 l -2.860798,-1.640778 -1.785238,1.046641 c -1.104386,0.647487 -2.006656,1.047441 -2.365795,1.048721 -1.34636,0.0048 -1.921051,-1.623336 -0.880257,-2.493759 0.291691,-0.243932 0.846372,-0.61225 1.232621,-0.818507 0.386248,-0.206256 0.702272,-0.422952 0.702272,-0.481625 0,-0.235733 -3.516381,-2.100002 -3.814175,-2.022131 -0.176033,0.04604 -2.703486,1.459235 -5.61656,3.140524 -2.975478,1.717247 -5.503835,3.056815 -5.769625,3.056815 -1.068247,0 -1.766048,-1.809875 -0.965911,-2.505236 0.182523,-0.158622 2.379902,-1.463436 4.883066,-2.899513 2.503165,-1.436117 4.573322,-2.628822 4.600355,-2.650459 0.05844,-0.04675 -8.110616,-4.779818 -8.52267,-4.93792 -0.166389,-0.06387 -2.133014,0.956531 -4.740694,2.459681 -2.450986,1.41284 -4.644434,2.568828 -4.874323,2.568828 -1.064028,0 -1.80262,-1.820433 -1.017049,-2.506755 0.182519,-0.159462 1.933205,-1.209623 3.890407,-2.333696 1.957202,-1.124032 3.535903,-2.065085 3.508222,-2.091123 -0.02768,-0.02608 -1.415688,-0.829665 -3.084466,-1.785757 -3.274201,-1.875867 -3.887488,-2.38489 -3.887488,-3.226394 0,-0.656486 0.764282,-1.333529 1.495235,-1.32457 0.274865,0.0032 1.932889,0.839985 3.71969,1.876907 l 3.223771,1.870868 0.09482,-4.454095 c 0.09365,-4.398941 0.100356,-4.458534 0.542502,-4.816214 0.628785,-0.508702 1.386271,-0.459068 1.937089,0.126866 l 0.459732,0.489064 0.06004,5.247365 0.06004,5.247365 4.017088,2.311378 c 2.209394,1.271256 4.166416,2.368412 4.348939,2.438124 0.311365,0.118906 0.331859,-0.214656 0.331859,-5.401548 l 0,-5.528293 0.465467,-0.465467 c 0.597272,-0.597252 1.420123,-0.608371 1.966717,-0.02656 0.406418,0.432591 0.412321,0.52998 0.412321,6.797429 0,5.82158 0.02802,6.382396 0.331858,6.641287 0.359344,0.306165 3.376813,2.051607 3.546798,2.051607 0.057,0 0.103652,-0.633808 0.103652,-1.40848 0,-1.295733 0.04,-1.439957 0.499656,-1.801516 0.699237,-0.550017 1.468345,-0.508022 1.951818,0.106628 0.344937,0.438511 0.393028,0.761794 0.393028,2.641941 0,2.123279 0.0046,2.145516 0.521493,2.502756 0.707176,0.488785 5.276297,3.078772 5.431396,3.078772 0.06818,0 0.100688,-1.551785 0.07226,-3.44845 l -0.05169,-3.448449 -1.760153,-1.029043 c -2.111708,-1.23454 -2.502356,-1.771439 -2.02335,-2.780885 0.455472,-0.959851 1.138063,-1.042402 2.548723,-0.308205 0.618437,0.321843 1.170591,0.585174 1.227012,0.585174 0.05642,0 0.100797,-0.960012 0.09861,-2.133359 l -0.004,-2.133398 -5.408787,-3.108567 c -2.974835,-1.709766 -5.533105,-3.286107 -5.685043,-3.503043 -0.644951,-0.920775 0.02148,-2.20635 1.143762,-2.20635 0.351348,0 2.163867,0.934574 5.148948,2.654899 2.533701,1.460155 4.652249,2.654859 4.70789,2.654859 0.05565,0 0.101169,-2.253544 0.101169,-5.007872 l 0,-5.007872 -4.21935,-2.430204 c -2.320644,-1.336609 -4.411355,-2.620583 -4.646028,-2.853317 -0.245164,-0.243094 -0.426676,-0.654727 -0.426676,-0.967572 0,-0.675603 0.742896,-1.416519 1.420307,-1.416519 0.280373,0 2.059023,0.902098 4.134492,2.096882 l 3.642435,2.096844 0.05118,-3.851045 c 0.05028,-3.7829711 0.05934,-3.8598821 0.512438,-4.3487471 0.552705,-0.596412 1.32005,-0.644567 1.996433,-0.125346 0.473163,0.363199 0.474271,0.371678 0.5689,4.3448281 l 0.09482,3.98091 3.582418,-2.073447 c 3.674579,-2.126798 4.357146,-2.368051 5.10197,-1.803155 0.187282,0.142024 0.389431,0.559736 0.449229,0.928215 0.08779,0.540938 0.0222,0.754874 -0.340506,1.110914 -0.247072,0.242534 -2.347934,1.536307 -4.668578,2.875035 l -4.21935,2.434044 0,5.02899 c 0,3.947552 0.05098,5.008552 0.237045,4.93384 0.130373,-0.05231 2.242418,-1.255937 4.693432,-2.674696 4.538217,-2.626902 5.184344,-2.879554 5.925396,-2.316938 0.484085,0.367479 0.628977,1.346728 0.278437,1.881707 -0.15973,0.243772 -2.726843,1.843551 -5.709129,3.557837 l -5.418894,3.114886 -0.0032,2.133398 c -0.0016,1.173347 0.06085,2.131919 0.139076,2.130159 0.07822,-0.002 0.568899,-0.256331 1.090392,-0.565696 1.2358,-0.733037 1.822242,-0.729557 2.448351,0.01452 0.368954,0.438471 0.461515,0.70936 0.372581,1.090397 -0.165017,0.70704 -0.388887,0.904617 -2.28698,2.018411 l -1.671755,0.981009 -0.05169,3.447209 c -0.02844,1.895985 0.01424,3.446451 0.09482,3.445531 0.08058,-8e-4 1.426531,-0.747596 2.991009,-1.659294 l 2.844506,-1.657612 0.09482,-2.340414 c 0.08804,-2.173274 0.126794,-2.366292 0.542498,-2.702294 0.646187,-0.522301 1.434506,-0.465387 1.908976,0.137824 0.310929,0.395276 0.393031,0.771593 0.393031,1.801516 0,0.715999 0.064,1.297733 0.142224,1.292693 0.07822,-0.005 0.910241,-0.457708 1.848927,-1.005925 l 1.706706,-0.996767 0.09481,-6.43719 c 0.100717,-6.837785 0.141844,-7.131072 1.033587,-7.370605 0.775348,-0.208256 1.222142,-0.09987 1.607522,0.390076 0.377077,0.479386 0.393031,0.722678 0.393031,5.99376 0,5.023031 0.02676,5.483819 0.312241,5.374271 0.171732,-0.06591 2.131842,-1.163068 4.355802,-2.438124 l 4.043565,-2.318297 0.0058,-4.965557 c 0.0058,-4.956238 0.07528,-5.601524 0.66716,-6.193417 0.446861,-0.44683 1.476225,-0.401275 1.916687,0.08483 0.327119,0.361039 0.37021,0.816068 0.456068,4.816454 l 0.09482,4.417739 3.223771,-1.873468 c 3.563992,-2.071205 4.147585,-2.238386 4.821897,-1.381123 0.463707,0.589533 0.500631,1.158669 0.111231,1.714606 -0.154982,0.221295 -1.584348,1.151749 -3.176363,2.067725 -1.592008,0.915976 -3.046851,1.76672 -3.232978,1.890506 -0.293759,0.195418 0.150759,0.506022 3.369026,2.354173 2.039089,1.170987 3.79141,2.285981 3.894043,2.477759 0.309696,0.578654 0.214659,1.427238 -0.202094,1.804395 -0.7721,0.698721 -1.376,0.479306 -5.947973,-2.161275 -2.511603,-1.450595 -4.46437,-2.4642 -4.627139,-2.401727 -0.426248,0.163541 -8.585523,4.886526 -8.525698,4.93504 0.02864,0.02324 2.100102,1.214382 4.603266,2.64698 2.503165,1.432637 4.700547,2.776287 4.883067,2.985983 0.182523,0.209656 0.331862,0.664245 0.331862,1.010165 0,0.818428 -0.787895,1.494471 -1.561483,1.339728 -0.288467,-0.05767 -2.899667,-1.472393 -5.80267,-3.143765 -2.903003,-1.67137 -5.368659,-3.038895 -5.479239,-3.038895 -0.248787,0 -3.654813,1.9371 -3.654545,2.078444 1.04e-4,0.05631 0.424488,0.340642 0.943069,0.631929 1.5478,0.869303 1.964005,1.928383 1.083077,2.755969 -0.666332,0.625969 -1.341984,0.506902 -3.219371,-0.567456 -0.941665,-0.538899 -1.81149,-0.979769 -1.932941,-0.979769 -0.206204,0 -5.976442,3.260951 -5.976442,3.377497 0,0.02932 1.045354,0.650167 2.323013,1.379604 1.277655,0.729477 2.621682,1.502709 2.986729,1.718325 l 0.663717,0.392076 1.801519,-1.030324 c 1.096524,-0.627089 2.02871,-1.030843 2.382074,-1.031723 0.790967,-0.002 1.4106,0.610891 1.4106,1.395162 0,0.702401 -0.39943,1.14403 -1.659295,1.834552 -0.443266,0.242973 -0.805921,0.490025 -0.805893,0.549058 1.04e-4,0.212976 3.613734,2.134838 3.842536,2.043608 0.129002,-0.05143 2.621599,-1.468193 5.539116,-3.148283 3.135373,-1.805595 5.506428,-3.054773 5.798183,-3.054773 0.652302,0 1.318246,0.730677 1.318246,1.446396 0,0.839024 -0.56312,1.264896 -5.120111,3.87248 -2.242418,1.283135 -4.222358,2.429845 -4.399869,2.548231 -0.272569,0.18178 0.355607,0.607011 4.041285,2.73565 l 4.364029,2.520354 4.494619,-2.579267 c 2.472039,-1.418559 4.689424,-2.579228 4.927525,-2.579228 0.609211,0 1.363837,0.814988 1.363837,1.472953 0,0.788151 -0.602603,1.259257 -4.428745,3.462128 -2.869963,1.652372 -3.332195,1.979175 -3.03414,2.145076 3.095421,1.723165 5.940022,3.463968 6.277676,3.841685 0.561756,0.628448 0.539915,1.308331 -0.06134,1.909583 -0.716623,0.716639 -1.243795,0.550058 -4.821726,-1.523587 l -3.128954,-1.813433 -0.05085,4.331228 c -0.05039,4.293194 -0.05489,4.335589 -0.512438,4.829293 -0.606295,0.654206 -1.401257,0.657765 -2.011124,0.009 l -0.459732,-0.489065 -0.05569,-5.247365 -0.05571,-5.247365 -4.305868,-2.488637 -4.305879,-2.488598 -0.0502,5.545491 -0.05019,5.545451 -0.462244,0.498783 c -0.577594,0.62321 -1.24605,0.637448 -1.939444,0.04132 l -0.532063,-0.457468 -0.05883,-6.511582 -0.05884,-6.511582 -1.772443,-0.995567 c -0.974858,-0.547578 -1.823065,-0.995567 -1.884918,-0.995567 -0.06185,0 -0.112452,0.601212 -0.112452,1.336049 0,1.165668 -0.05936,1.395401 -0.465467,1.801515 -0.593229,0.593213 -1.32035,0.593213 -1.913575,0 -0.441462,-0.441469 -0.465507,-0.580814 -0.466323,-2.702293 l -8e-4,-2.236826 -3.033284,-1.745362 -3.033284,-1.745402 0,3.488444 0,3.488444 1.801024,1.05996 c 1.957474,1.152029 2.397724,1.625536 2.242286,2.411607 -0.25054,1.267056 -1.507629,1.500669 -3.016722,0.560656 l -0.931771,-0.580374 -0.05393,2.11192 c -0.03916,1.533826 0.01272,2.174154 0.189631,2.339255 0.133965,0.125066 2.504952,1.523507 5.268863,3.107688 2.76391,1.58418 5.217296,3.092649 5.451969,3.35218 0.585814,0.647766 0.555489,1.459594 -0.07298,1.953938 -0.274805,0.216175 -0.711492,0.393035 -0.970394,0.393035 -0.260003,0 -2.527722,-1.188465 -5.06567,-2.654859 -2.527213,-1.460194 -4.650589,-2.654859 -4.718613,-2.654859 -0.06803,0 -0.123686,2.249105 -0.123686,4.998034 l 0,4.998073 4.370732,2.520874 c 2.403892,1.386483 4.494603,2.697774 4.646018,2.91395 0.649598,0.927414 -0.02532,2.208989 -1.159173,2.20111 -0.357943,-0.0024 -1.842983,-0.745875 -4.15972,-2.082324 l -3.60304,-2.078444 -0.09582,3.836445 c -0.05271,2.110041 -0.164073,3.974189 -0.24748,4.14261 -0.171768,0.346801 -0.935858,0.739956 -1.419731,0.730477 -0.177612,-0.0036 -0.536275,-0.183619 -0.797022,-0.400314 l 0,0 z" />
</svg>
