<?xml version="1.0" encoding="UTF-8" standalone="no"?>
<!-- Created with Inkscape (http://www.inkscape.org/) -->

<svg
   xmlns:dc="http://purl.org/dc/elements/1.1/"
   xmlns:cc="http://creativecommons.org/ns#"
   xmlns:rdf="http://www.w3.org/1999/02/22-rdf-syntax-ns#"
   xmlns:svg="http://www.w3.org/2000/svg"
   xmlns="http://www.w3.org/2000/svg"
   xmlns:sodipodi="http://sodipodi.sourceforge.net/DTD/sodipodi-0.dtd"
   xmlns:inkscape="http://www.inkscape.org/namespaces/inkscape"
   width="460"
   height="460"
   id="svg2"
   version="1.1"
   inkscape:version="0.48.3.1 r9886"
   inkscape:export-filename="/home/micha/Develop/xbmcremote/qml/xbmcremote/harmattan/icons/pad-bg.png"
   inkscape:export-xdpi="90"
   inkscape:export-ydpi="90"
   sodipodi:docname="pad.svg">
  <defs
     id="defs4" />
  <sodipodi:namedview
     id="base"
     pagecolor="#ffffff"
     bordercolor="#666666"
     borderopacity="1.0"
     inkscape:pageopacity="0.0"
     inkscape:pageshadow="2"
     inkscape:zoom="1"
     inkscape:cx="-20.37516"
     inkscape:cy="190.22729"
     inkscape:document-units="px"
     inkscape:current-layer="layer3"
     showgrid="true"
     inkscape:window-width="1440"
     inkscape:window-height="857"
     inkscape:window-x="-2"
     inkscape:window-y="20"
     inkscape:window-maximized="1">
    <inkscape:grid
       type="xygrid"
       id="grid2985"
       empspacing="5"
       visible="true"
       enabled="true"
       snapvisiblegridlinesonly="true" />
  </sodipodi:namedview>
  <metadata
     id="metadata7">
    <rdf:RDF>
      <cc:Work
         rdf:about="">
        <dc:format>image/svg+xml</dc:format>
        <dc:type
           rdf:resource="http://purl.org/dc/dcmitype/StillImage" />
        <dc:title></dc:title>
      </cc:Work>
    </rdf:RDF>
  </metadata>
  <g
     inkscape:groupmode="layer"
     id="layer6"
     inkscape:label="bg"
     style="display:none">
    <rect
       style="fill:#00fd90;fill-opacity:1;stroke:none;display:inline"
       id="rect4439"
       width="460"
       height="460"
       x="0"
       y="0" />
  </g>
  <g
     inkscape:groupmode="layer"
     id="layer2"
     inkscape:label="Left"
     style="display:none">
    <path
       style="fill:#21496f;fill-opacity:0.94117647;stroke:none"
       d="m 50,150 c -22.16,0 -40,17.84 -40,40 l 0,80 c 0,22.16 17.84,40 40,40 l 100,0 0,-160 -100,0 z"
       id="rect4331"
       inkscape:connector-curvature="0" />
    <path
       inkscape:connector-curvature="0"
       style="fill:none;stroke:#ffffff;stroke-width:2;stroke-linecap:round;stroke-linejoin:round;stroke-miterlimit:4;stroke-opacity:1"
       d="m 190,10 c -22.16,0 -40,17.84 -40,40 l 0,100 -100,0 c -22.16,0 -40,17.84 -40,40 l 0,80 c 0,22.16 17.84,40 40,40 l 100,0 0,100 c 0,22.16 17.84,40 40,40 l 80,0 c 22.16,0 40,-17.84 40,-40 l 0,-100 100,0 c 22.16,0 40,-17.84 40,-40 l 0,-80 c 0,-22.16 -17.84,-40 -40,-40 l -100,0 0,-100 C 310,27.84 292.16,10 270,10 l -80,0 z"
       id="rect3779-8" />
  </g>
  <g
     inkscape:groupmode="layer"
     id="layer5"
     inkscape:label="Down"
     style="display:none">
    <path
       inkscape:connector-curvature="0"
       style="fill:#21496f;fill-opacity:0.94117647;stroke:none"
       d="m 310,410 c 0,22.16 -17.84,40 -40,40 l -80,0 c -22.16,0 -40,-17.84 -40,-40 l 0,-100 160,0 0,100 z"
       id="path4339" />
    <path
       inkscape:connector-curvature="0"
       style="fill:none;stroke:#ffffff;stroke-width:2;stroke-linecap:round;stroke-linejoin:round;stroke-miterlimit:4;stroke-opacity:1"
       d="m 190,10 c -22.16,0 -40,17.84 -40,40 l 0,100 -100,0 c -22.16,0 -40,17.84 -40,40 l 0,80 c 0,22.16 17.84,40 40,40 l 100,0 0,100 c 0,22.16 17.84,40 40,40 l 80,0 c 22.16,0 40,-17.84 40,-40 l 0,-100 100,0 c 22.16,0 40,-17.84 40,-40 l 0,-80 c 0,-22.16 -17.84,-40 -40,-40 l -100,0 0,-100 C 310,27.84 292.16,10 270,10 l -80,0 z"
       id="rect3779-5" />
  </g>
  <g
     inkscape:groupmode="layer"
     id="layer4"
     inkscape:label="Right"
     style="display:none">
    <path
       id="path4337"
       d="m 410,150 c 22.16,0 40,17.84 40,40 l 0,80 c 0,22.16 -17.84,40 -40,40 l -100,0 0,-160 100,0 z"
       style="fill:#21496f;fill-opacity:0.94117647;stroke:none"
       inkscape:connector-curvature="0" />
    <path
       inkscape:connector-curvature="0"
       style="fill:none;stroke:#ffffff;stroke-width:2;stroke-linecap:round;stroke-linejoin:round;stroke-miterlimit:4;stroke-opacity:1"
       d="m 190,10 c -22.16,0 -40,17.84 -40,40 l 0,100 -100,0 c -22.16,0 -40,17.84 -40,40 l 0,80 c 0,22.16 17.84,40 40,40 l 100,0 0,100 c 0,22.16 17.84,40 40,40 l 80,0 c 22.16,0 40,-17.84 40,-40 l 0,-100 100,0 c 22.16,0 40,-17.84 40,-40 l 0,-80 c 0,-22.16 -17.84,-40 -40,-40 l -100,0 0,-100 C 310,27.84 292.16,10 270,10 l -80,0 z"
       id="rect3779-9" />
  </g>
  <g
     inkscape:groupmode="layer"
     id="layer3"
     inkscape:label="Up"
     style="display:none">
    <path
       id="path4341"
       d="M 310,50 C 310,27.84 292.16,10 270,10 l -80,0 c -22.16,0 -40,17.84 -40,40 l 0,100 160,0 0,-100 z"
       style="fill:#21496f;fill-opacity:0.94117647;stroke:none"
       inkscape:connector-curvature="0" />
    <path
       inkscape:connector-curvature="0"
       style="fill:none;stroke:#ffffff;stroke-width:2;stroke-linecap:round;stroke-linejoin:round;stroke-miterlimit:4;stroke-opacity:1"
       d="m 190,10 c -22.16,0 -40,17.84 -40,40 l 0,100 -100,0 c -22.16,0 -40,17.84 -40,40 l 0,80 c 0,22.16 17.84,40 40,40 l 100,0 0,100 c 0,22.16 17.84,40 40,40 l 80,0 c 22.16,0 40,-17.84 40,-40 l 0,-100 100,0 c 22.16,0 40,-17.84 40,-40 l 0,-80 c 0,-22.16 -17.84,-40 -40,-40 l -100,0 0,-100 C 310,27.84 292.16,10 270,10 l -80,0 z"
       id="rect3779-0" />
  </g>
  <g
     inkscape:label="Base"
     inkscape:groupmode="layer"
     id="layer1"
     transform="translate(0,-592.36217)"
     style="display:inline">
    <path
       style="fill:none;stroke:#ffffff;stroke-width:2;stroke-linecap:round;stroke-linejoin:round;stroke-miterlimit:4;stroke-opacity:1"
       d="m 190,10 c -22.16,0 -40,17.84 -40,40 l 0,100 -100,0 c -22.16,0 -40,17.84 -40,40 l 0,80 c 0,22.16 17.84,40 40,40 l 100,0 0,100 c 0,22.16 17.84,40 40,40 l 80,0 c 22.16,0 40,-17.84 40,-40 l 0,-100 100,0 c 22.16,0 40,-17.84 40,-40 l 0,-80 c 0,-22.16 -17.84,-40 -40,-40 l -100,0 0,-100 C 310,27.84 292.16,10 270,10 l -80,0 z"
       transform="translate(0,592.36217)"
       id="rect3779"
       inkscape:connector-curvature="0" />
    <path
       transform="translate(0,592.36217)"
       style="fill:#fffdff;fill-opacity:1;stroke:none"
       d="m 70,190 1,20 59,0 0,40 -61,0 1,20 -30,-40 z"
       id="rect4441"
       inkscape:connector-curvature="0"
       sodipodi:nodetypes="cccccccc" />
    <path
       sodipodi:nodetypes="cccccccc"
       inkscape:connector-curvature="0"
       id="path4444"
       d="m 390,782.36217 -1,20 -59,0 0,40 61,0 -1,20 30,-40 z"
       style="fill:#fffdff;fill-opacity:1;stroke:none" />
    <path
       style="fill:#fffdff;fill-opacity:1;stroke:none"
       d="m 269,983.36217 -20,-1 0,-59 -40,0 0,61 -20,-1 40,30.00003 z"
       id="path4446"
       inkscape:connector-curvature="0"
       sodipodi:nodetypes="cccccccc" />
    <path
       sodipodi:nodetypes="cccccccc"
       inkscape:connector-curvature="0"
       id="path4448"
       d="m 269,663.3622 -20,1 0,59 -40,0 0,-61 -20,1 40,-30.00003 z"
       style="fill:#fffdff;fill-opacity:1;stroke:none" />
  </g>
</svg>
