<?xml version="1.0" encoding="UTF-8" standalone="no"?>
<!-- Created with Inkscape (http://www.inkscape.org/) -->

<svg
   xmlns:dc="http://purl.org/dc/elements/1.1/"
   xmlns:cc="http://creativecommons.org/ns#"
   xmlns:rdf="http://www.w3.org/1999/02/22-rdf-syntax-ns#"
   xmlns:svg="http://www.w3.org/2000/svg"
   xmlns="http://www.w3.org/2000/svg"
   xmlns:xlink="http://www.w3.org/1999/xlink"
   xmlns:sodipodi="http://sodipodi.sourceforge.net/DTD/sodipodi-0.dtd"
   xmlns:inkscape="http://www.inkscape.org/namespaces/inkscape"
   width="64"
   height="64"
   id="svg2"
   version="1.1"
   inkscape:version="0.48.4 r9939"
   sodipodi:docname="xbmcremote-square.svg"
   inkscape:export-filename="/home/micha/Develop/xbmcremote/apps/ubuntu/xbmcremote80.png"
   inkscape:export-xdpi="112.5"
   inkscape:export-ydpi="112.5">
  <defs
     id="defs4">
    <linearGradient
       id="linearGradient3786">
      <stop
         style="stop-color:#264c91;stop-opacity:1;"
         offset="0"
         id="stop3788" />
      <stop
         id="stop3796"
         offset="0.38999999"
         style="stop-color:#366eb5;stop-opacity:1;" />
      <stop
         id="stop3794"
         offset="0.60000002"
         style="stop-color:#4288cf;stop-opacity:1;" />
      <stop
         style="stop-color:#4791d9;stop-opacity:1;"
         offset="1"
         id="stop3790" />
    </linearGradient>
    <linearGradient
       inkscape:collect="always"
       xlink:href="#linearGradient3823"
       id="linearGradient3975"
       x1="255.82761"
       y1="504.32233"
       x2="277.84488"
       y2="504.32233"
       gradientUnits="userSpaceOnUse" />
    <linearGradient
       id="linearGradient3823">
      <stop
         style="stop-color:#ffffff;stop-opacity:1;"
         offset="0"
         id="stop3825" />
      <stop
         id="stop3833"
         offset="0.5"
         style="stop-color:#ffffff;stop-opacity:0.78431374;" />
      <stop
         id="stop3831"
         offset="0.75"
         style="stop-color:#fffeff;stop-opacity:0.39215687;" />
      <stop
         style="stop-color:#ffffff;stop-opacity:1;"
         offset="1"
         id="stop3827" />
    </linearGradient>
    <linearGradient
       inkscape:collect="always"
       xlink:href="#linearGradient3786"
       id="linearGradient3792"
       x1="35"
       y1="64"
       x2="35"
       y2="0"
       gradientUnits="userSpaceOnUse" />
  </defs>
  <sodipodi:namedview
     id="base"
     pagecolor="#ffffff"
     bordercolor="#666666"
     borderopacity="1.0"
     inkscape:pageopacity="0.0"
     inkscape:pageshadow="2"
     inkscape:zoom="5.6"
     inkscape:cx="42.099699"
     inkscape:cy="38.328313"
     inkscape:document-units="px"
     inkscape:current-layer="layer1"
     showgrid="true"
     inkscape:window-width="2880"
     inkscape:window-height="1733"
     inkscape:window-x="-12"
     inkscape:window-y="32"
     inkscape:window-maximized="1">
    <inkscape:grid
       type="xygrid"
       id="grid3016"
       empspacing="5"
       visible="true"
       enabled="true"
       snapvisiblegridlinesonly="true" />
  </sodipodi:namedview>
  <metadata
     id="metadata7">
    <rdf:RDF>
      <cc:Work
         rdf:about="">
        <dc:format>image/svg+xml</dc:format>
        <dc:type
           rdf:resource="http://purl.org/dc/dcmitype/StillImage" />
        <dc:title></dc:title>
      </cc:Work>
    </rdf:RDF>
  </metadata>
  <g
     inkscape:label="Layer 1"
     inkscape:groupmode="layer"
     id="layer1"
     transform="translate(0,-988.36218)">
    <rect
       style="fill:url(#linearGradient3792);fill-opacity:1;stroke:none"
       id="rect3014"
       width="63.955357"
       height="63.92857"
       x="0.044642858"
       y="0.071428366"
       transform="translate(0,988.36218)"
       rx="5"
       ry="5" />
    <rect
       style="opacity:0.97000002;fill:none;stroke:none"
       id="rect3983"
       width="53.955357"
       height="53.955357"
       x="5.0223246"
       y="993.38452" />
    <g
       id="g3872"
       transform="translate(0.40178572,0.98214286)">
      <path
         style="opacity:0.06666703;fill:#000000;fill-opacity:1;stroke:none"
         d="m 14.125,1006.5 c 2.883001,3.3783 9.169829,0.027 12.34375,3.7188 8.667654,6.9288 1.382979,21.9516 -8.84375,22.3437 -2.730082,0.3792 -5.965798,-0.2521 -8.15625,1.6563 7.099436,0.7598 14.385966,-1.1639 19.0625,-6.7813 3.250734,-5.049 3.93424,3.1256 7.0625,4.5 3.747905,2.975 10.226865,2.4272 13.75,2 -3.296291,-2.7993 -9.154841,0.2286 -12.3125,-3.5937 -7.617748,-6.4215 -2.300662,-19.1362 6.375,-21.6563 3.528102,-1.3938 7.971826,0.3717 10.9375,-2.2187 -7.462948,-1.0496 -14.951158,1.2507 -19.832235,7.143 -2.775451,2.707 -3.732273,-4.2497 -6.824015,-5.3618 -3.868255,-2.8139 -9.18108,-1.3104 -13.5625,-1.75 z"
         id="path3874"
         inkscape:connector-curvature="0" />
      <path
         style="opacity:0.06666703;fill:#000000;fill-opacity:1;stroke:none"
         d="m 13.625,1006.25 c 2.512378,4.3417 9.555973,0.3914 12.78125,4.4062 8.489853,7.0948 0.454916,22.0909 -9.84375,21.5938 -2.730502,0.238 -6.07165,-0.064 -7.96875,2.3438 7.517865,0.6517 15.155622,-0.7952 20.1875,-6.9063 3.181004,-4.1114 3.943717,4.3564 7.59375,5.25 4.106375,2.267 9.502128,1.5924 13.65625,1.5313 -2.490336,-4.3347 -9.137994,-0.3247 -12.46875,-4.125 -7.592968,-5.944 -2.876325,-18.2752 5.3125,-21.0938 3.602724,-1.624 10.38944,0.2169 12,-3.125 -7.306803,-0.8956 -15.002133,0.7297 -19.875,6.5625 -2.972095,3.7803 -3.937071,-3.6192 -7.09375,-4.75 -4.052907,-2.8725 -10.009757,-1.4147 -14.28125,-1.6875 z"
         id="path3878"
         inkscape:connector-curvature="0" />
      <path
         style="opacity:0.06666703;fill:#000000;fill-opacity:1;stroke:none"
         d="m 13.125,1005.8125 c 1.755871,5.5136 9.721992,0.9755 13.03125,5.0937 8.244677,6.9326 0.409599,21.4728 -9.625,21 -3.111698,0.1364 -6.8317281,0.064 -8.6875,3.0626 7.769461,0.6495 16.082162,-0.672 21.1875,-7.0313 2.700011,-3.561 3.384791,3.7766 6.21875,4.625 4.236375,3.2016 10.776166,2.4568 15.25,2.125 -2.051215,-5.1272 -9.31204,-0.8001 -12.71875,-4.625 -7.363113,-5.8012 -2.719512,-17.7335 5.21875,-20.4687 4.095358,-1.8214 10.222612,0.6219 12.84375,-3.8438 -7.666432,-0.8016 -15.870958,0.394 -21.0625,6.6562 -2.655999,3.263 -3.568492,-3.5591 -6.40625,-4.5624 -4.271124,-3.2698 -10.491073,-1.6245 -15.25,-2.0313 z"
         id="path3882"
         inkscape:connector-curvature="0" />
      <path
         style="opacity:0.06666703;fill:#000000;fill-opacity:1;stroke:none"
         d="m 12.71875,1005.5625 c 1.241215,6.3325 10.184373,1.3839 13.5,5.9063 7.558723,6.8833 -0.181793,20.5025 -9.6875,20.0937 -3.429122,0.044 -7.569749,0.226 -9.3125,3.7813 7.83213,0.4255 16.244799,-0.2376 21.553547,-6.6484 2.758753,-3.8281 3.504468,3.4716 6.540203,4.3671 4.476951,3.1035 10.937354,2.2139 15.65625,2.0313 -1.525985,-6.1485 -9.781343,-1.3821 -13.28125,-5.5626 -7.726036,-6.8031 -0.449556,-20.0845 8.90625,-20.3437 3.620758,-0.1075 8.120335,0.025 9.9375,-3.75 -7.613981,-0.6721 -15.975163,-0.1285 -21.324805,6.0886 -2.935519,3.9602 -3.986036,-3.5231 -7.300195,-4.4323 -4.407867,-2.7245 -10.55934,-1.3176 -15.1875,-1.5313 z"
         id="path3886"
         inkscape:connector-curvature="0" />
      <path
         style="opacity:0.06666703;fill:#000000;fill-opacity:1;stroke:none"
         d="m 12.3125,1005.0938 c 1.030386,7.9927 12.981026,1.3298 15.5,8.8437 4.234817,8.5052 -4.548983,18.6901 -13.59163,17.4088 -3.045244,-0.1212 -6.4292105,1.2896 -7.53337,4.3725 8.004649,0.5037 16.82496,-0.2022 22.334797,-6.7734 2.403054,-3.0882 3.144406,3.3136 5.758953,4.1796 4.65517,3.4297 11.536505,2.6533 16.59375,2.25 -0.936226,-6.5011 -9.006067,-2.401 -12.71875,-5.5938 -7.106299,-4.8877 -3.453815,-15.9646 3.53125,-19.0312 4.561182,-2.457 13.138952,0.3026 14.6875,-5.6875 -7.761308,-0.7132 -16.493633,-0.089 -21.894735,6.1743 -2.608612,3.4164 -3.568836,-3.3775 -6.480265,-4.1743 -4.591737,-3.2546 -11.129298,-1.5719 -16.1875,-1.9687 z"
         id="path3890"
         inkscape:connector-curvature="0" />
      <path
         style="opacity:0.06666703;fill:#000000;fill-opacity:1;stroke:none"
         d="m 11.96875,1005.125 c -0.07979,4.3359 4.802862,5.0216 8.1875,4.75 5.988741,-0.2679 10.014263,6.3822 7.9375,11.7812 -1.67838,6.196 -8.103166,9.9926 -14.375,9.375 -3.177077,-0.1121 -6.6478247,1.7751 -7.53125,5.0313 7.623108,0.021 16.03638,0.5248 21.59375,-5.5 2.364274,-3.9435 3.395743,-1.0247 5.125,1.2813 4.419788,5.2585 12.754542,4.2698 18.78125,3.9374 0.319585,-4.0915 -4.683242,-5.4894 -8.0625,-4.875 -6.716097,0.3726 -10.522513,-7.7855 -7.5,-13.3437 2.412136,-5.3408 8.185657,-8.4354 14.0625,-7.875 3.355342,0.1684 6.217847,-1.8807 7.5625,-4.9375 -7.520096,-0.3858 -16.166299,-0.7549 -21.75,5.0938 -2.349742,3.875 -3.447349,0.8813 -5.21875,-1.2813 -4.631268,-5.4991 -12.501787,-3.3614 -18.8125,-3.9375 l 0,0.5 z"
         id="path3894"
         inkscape:connector-curvature="0" />
      <path
         style="opacity:0.06666703;fill:#000000;fill-opacity:1;stroke:none"
         d="m 11.59375,1005.1562 c -0.02828,3.1103 2.960811,5.278 5.9375,4.9376 3.364173,0.025 7.298511,0.3088 9.1875,3.5312 2.623208,3.5143 1.420848,8.7662 -1.03125,12.0312 -2.421995,3.2078 -6.410992,5.1614 -10.5,4.9063 -3.829644,-0.2296 -8.3037923,1.4327 -9.375,5.4687 0.8838691,1.0171 4.1760876,0.046 5.96875,0.3126 4.5064,0.056 9.242556,-0.2762 13,-3.0313 2.086503,-1.2193 3.791395,-2.9707 5.53125,-4.625 2.098318,4.3981 6.534389,7.5152 11.46875,7.5625 3.346866,0.064 6.92894,0.4636 10.15625,-0.094 0.733173,-3.134 -2.583792,-5.8058 -5.575239,-5.5528 -3.053747,0.093 -6.547228,-0.08 -8.643511,-2.5096 -3.981432,-4.336 -2.205837,-11.5981 2.261712,-14.8993 3.191745,-3.454 8.091658,-2.805 12.307245,-3.3895 2.846958,-0.2894 5.169517,-3.182 5.931043,-5.43 -6.521055,0.067 -13.773604,-1.1589 -19.429744,2.905 -1.981503,1.2592 -3.576407,2.8073 -5.289006,4.345 -2.352973,-4.3721 -6.98423,-7.666 -12.106879,-7.2012 -3.264959,-0.1149 -6.533082,-0.1099 -9.799371,-0.1738 0,0.3021 0,0.6042 0,0.9062 z"
         id="path3898"
         inkscape:connector-curvature="0" />
      <path
         sodipodi:nodetypes="sscsscsscssssssssscssscssssssssscss"
         inkscape:connector-curvature="0"
         id="path3902"
         d="m 20.224174,1035.9006 c 2.833673,-0.9271 5.798114,-2.6951 8.048826,-4.8006 l 1.986016,-1.8578 0.791776,1.3511 c 1.070059,1.8258 3.348432,3.8691 5.311819,4.7637 2.295654,1.046 4.94404,1.3894 10.735251,1.3921 4.866819,0 5.064162,-0.025 5.265054,-0.6553 0.352683,-1.1112 -0.471494,-3.3328 -1.60594,-4.3289 -1.378676,-1.2105 -2.81328,-1.5711 -6.258256,-1.5732 -2.511931,0 -3.055662,-0.107 -4.530566,-0.8725 -4.012357,-2.0844 -5.257859,-7.0499 -2.990692,-11.9228 0.934479,-2.0086 3.884627,-4.8667 6.065313,-5.8762 1.544153,-0.7148 2.386073,-0.8666 5.716518,-1.0311 4.292462,-0.2119 5.461374,-0.5612 7.307338,-2.1818 0.959393,-0.8424 2.691238,-3.5431 2.691238,-4.1969 0,-0.092 -2.826964,-0.1665 -6.282148,-0.1665 -4.702558,0 -6.75916,0.1237 -8.179594,0.4917 -3.174033,0.8224 -6.512086,2.7389 -9.304779,5.3422 l -1.426024,1.3293 -1.094292,-1.6288 c -1.310399,-1.9503 -3.549468,-3.7235 -5.895995,-4.6691 -1.553658,-0.6261 -2.370421,-0.7029 -8.514389,-0.8008 l -6.795909,-0.1081 0,1.2841 c 0,1.7305 0.981292,3.5419 2.390666,4.4129 0.976917,0.6037 1.755958,0.7479 4.930842,0.9123 4.455922,0.2307 5.500071,0.6085 7.284126,2.6353 1.6853,1.9146 2.063602,3.1319 1.887164,6.0723 -0.24316,4.0525 -2.676412,7.663 -6.559022,9.7325 -1.798372,0.9584 -2.215176,1.0455 -6.051434,1.2637 -4.262955,0.2427 -5.145174,0.4919 -7.2115729,2.0378 -1.119133,0.8373 -2.1403608,2.3579 -2.4697594,3.6774 l -0.2236178,0.8955 6.5263791,-0.1461 c 5.431162,-0.1215 6.850138,-0.2519 8.455542,-0.7773 z"
         style="opacity:0.06666703;fill:#000000;fill-opacity:1;stroke:none" />
      <path
         style="opacity:0.06666703;fill:#000000;fill-opacity:1;stroke:none"
         d="m 10.90625,1003.9062 c -0.537353,3.4438 2.038256,7.0466 5.6875,6.8126 3.390732,0.1842 7.579998,-0.03 9.5625,3.3437 2.736696,3.8496 0.925341,9.5551 -2.291321,12.526 -2.541385,2.6709 -6.238212,3.4402 -9.809182,3.3548 -4.3748321,-0.2533 -8.7369424,2.763 -9.274497,7.2442 5.883304,-0.5362 12.255455,0.7294 17.75,-1.8125 2.908311,-1.305 5.403898,-3.318 7.625,-5.5625 2.342018,4.5162 7.174198,7.2738 12.275504,7.1678 3.268497,-0.048 6.758718,0.5363 9.911996,-0.2303 1.287997,-2.076 -0.556225,-5.0758 -2.53125,-6.0938 -3.594613,-1.6869 -8.293806,0.4219 -11.3125,-2.7812 -3.975648,-3.9199 -2.376883,-10.7821 1.71875,-13.9375 2.870512,-3.2117 7.322788,-3.0306 11.25,-3.3125 3.681407,-0.09 6.792791,-3.297 7.625,-6.6562 -1.982355,-0.7657 -4.478146,-0.1025 -6.625,-0.375 -4.975613,-0.1788 -10.278212,0.1982 -14.375,3.2812 -1.622183,1.0877 -3.075586,2.3392 -4.46875,3.6875 -2.503617,-4.4626 -7.42116,-7.3447 -12.588758,-6.84 -3.374988,-0.1196 -6.756316,-0.068 -10.129992,-0.1913 l 0,0.3572 0,0.018 z"
         id="path3904"
         inkscape:connector-curvature="0" />
      <path
         style="opacity:0.06666703;fill:#000000;fill-opacity:1;stroke:none"
         d="m 10.53125,1003.9062 c -0.7348674,4.618 3.581524,8.0713 8.03125,7.3126 4.927335,-0.7837 9.720491,3.6455 8.40625,8.6874 -0.730029,6.3185 -7.259817,10.4223 -13.34375,9.6876 -4.5443354,-0.1508 -8.8383955,3.2747 -9.28125,7.9374 8.304138,-0.1 17.741918,0.8414 24,-5.5 2.096436,-3.5086 3.156573,1.5201 5.3125,2.4688 5.226354,3.9354 12.593854,3.0696 18.71875,2.6562 2.321468,-2.9074 -1.283713,-7.3693 -4.65625,-7.5 -4.168433,0.1331 -9.58438,-0.2216 -10.8125,-5.0937 -2.008057,-7.3066 5.481209,-14.3231 12.587835,-13.3893 4.603099,0.389 9.1191,-2.8511 9.974665,-7.3294 -3.33319,-1.4248 -7.643043,-0.2706 -11.3125,-0.5626 -5.588103,-0.072 -10.593295,2.9441 -14.46875,6.7188 -3.061714,-5.5305 -9.6069,-7.4059 -15.625,-6.7188 -1.843294,0.536 -7.071962,-1.1721 -7.53125,0.625 z"
         id="path3908"
         inkscape:connector-curvature="0" />
      <path
         style="opacity:0.06666703;fill:#000000;fill-opacity:1;stroke:none"
         d="m 10.1875,1003.9062 c -0.9192961,5.5583 4.904472,8.7319 9.84375,7.75 6.911362,-0.3027 8.665853,8.7852 4.5,13.1563 -4.204553,7.0151 -14.044276,1.7135 -18.65625,8 -1.7057197,2.2222 -3.2401512,6.6616 1.4058838,5.0242 8.1763842,0.5938 17.0461582,-0.4289 22.7503662,-6.8992 4.363582,7.8188 14.977973,7.5579 22.6875,6.4375 2.732679,-4.0545 -2.698563,-9.047 -7,-8.2188 -5.788627,1.428 -10.709297,-4.7878 -8.25,-10.0312 1.93767,-6.1291 8.793031,-8.3213 14.6875,-7.8438 3.637106,-0.3819 8.077594,-4.3749 7.3125,-7.9374 -8.255295,-1.1485 -18.246188,-1.3171 -24.65625,5.1562 -1.891587,1.6827 -3.490057,-3.2064 -6.03125,-3.8125 -5.617016,-3.1019 -12.483979,-1.1142 -18.59375,-1.875 l 0,1 0,0.094 z"
         id="path3912"
         inkscape:connector-curvature="0" />
      <path
         style="opacity:0.06666703;fill:#000000;fill-opacity:1;stroke:none"
         d="m 9.8125,1003.9062 c -0.8592377,5.3645 4.658582,9.0793 9.685469,8.095 6.1537,-0.7477 8.911306,7.021 5.502031,11.53 -3.019287,5.9042 -9.845938,4.8519 -15.25,6 -3.6598543,1.3333 -5.9415107,4.9421 -6.34375,8.75 8.955631,-0.067 19.223689,0.918 25.84375,-6.1562 1.660443,-0.9567 3.07033,3.3516 5.28125,3.8438 5.496349,2.8708 12.482591,2.7037 18.375,1.6874 3.152023,-4.2418 -2.576265,-9.7169 -7.1875,-8.875 -6.313503,1.5467 -10.636977,-5.6634 -7.4375,-10.8124 2.657124,-5.6348 9.025,-6.3499 14.5,-6.4376 3.617526,-0.6571 8.077569,-4.8541 6.9375,-8.4374 -6.010903,-0.9522 -13.16129,-1.3252 -19.03125,1.0937 -2.592373,0.887 -5.126464,3.6894 -7.0625,4.4375 -5.151083,-8.0065 -15.753098,-5.8043 -23.8125,-6.1562 l 0,1 0,0.4374 z"
         id="path3916"
         inkscape:connector-curvature="0" />
      <path
         style="opacity:0.06666703;fill:#000000;fill-opacity:1;stroke:none"
         d="m 9.46875,1003.9062 c -0.8730253,5.6597 4.828493,9.392 10.02913,8.4401 6.21359,-0.667 8.528174,7.25 4.84587,11.4975 -3.23639,5.9073 -10.34327,3.6873 -15.5,5.7187 -3.5931487,1.5794 -5.4228896,5.3534 -5.90625,9.0937 9.111641,-0.1439 19.74457,0.9949 26.5625,-6.25 2.157859,1.0744 4.768654,4.9924 8.21875,5.3126 5.004941,0.7572 10.927833,1.846 15.65625,0 2.942917,-4.5741 -2.791357,-10.086 -7.625,-9.2813 -5.574637,1.3871 -10.053202,-4.6188 -7.46875,-9.5625 2.115683,-5.7028 8.527359,-7.1487 14.03125,-6.9062 4.092872,-0.4426 9.101781,-5.1396 7.6875,-9.0938 -5.17753,-1.385 -11.445463,-0.9159 -16.84375,0.031 -3.570673,0.7105 -6.901918,3.9257 -9.5,5.1563 -5.412781,-7.8982 -16.081365,-5.4872 -24.1875,-5.9687 l 0,1 0,0.8124 z"
         id="path3920"
         inkscape:connector-curvature="0" />
      <path
         style="opacity:0.06666703;fill:#000000;fill-opacity:1;stroke:none"
         d="m 9.09375,1003.9062 c -0.8736449,6.0706 5.367447,9.8536 10.875,8.8126 7.461135,-0.071 6.992512,10.1517 1.875,13.2812 -4.883168,3.9565 -12.9527912,0.1947 -16.8125,6.1562 -1.463757,2.1806 -4.46814274,8.1538 0.25,6.8126 8.580066,0.2425 18.251508,0.2369 24.5625,-6.3438 5.146736,7.2665 15.46333,6.9417 23.25,5.75 4.121765,-3.8499 -1.28762,-10.7365 -6.21875,-10.2188 -4.174461,0.6897 -9.374118,-1.3221 -8.875,-6.25 0.24985,-6.6398 7.60506,-10.4289 13.6875,-9.5 4.692892,-0.2713 8.974929,-4.4981 9.21875,-9.1562 -3.996745,-3.033 -10.065983,-0.9545 -14.875,-1.25 -4.555018,0.393 -8.797756,2.9361 -12.09375,5.8438 -5.569932,-8.10023 -16.51646,-5.6134 -24.84375,-6.125 0,0.7291 0,1.4583 0,2.1874 z"
         id="path3924"
         inkscape:connector-curvature="0" />
      <path
         style="opacity:0.06666703;fill:#000000;fill-opacity:1;stroke:none"
         d="m 8.75,1003.9062 c -0.8708446,5.9816 5.114738,10.1375 10.685285,9.1603 6.153413,-0.6926 7.600623,7.223 3.908465,10.9335 -4.428899,6.5005 -14.2707196,1.1687 -18.625,7.9688 -1.5991874,2.4573 -4.91389279,9.1469 0.59375,7.3437 8.537151,0.2032 18.093084,0.3318 24.46875,-6.1875 5.292581,7.1706 15.533613,6.6859 23.375,5.6562 4.68966,-3.9719 -0.915203,-11.4781 -6.25,-11 -4.173713,0.8539 -9.39645,-1.479 -8.5,-6.4062 0.684411,-6.325 7.543374,-9.3162 13.3125,-8.5938 4.853959,-0.2967 9.4658,-4.7711 9.53125,-9.6874 -3.703748,-3.32035 -9.655997,-1.037 -14.28125,-1.5313 -4.917099,-0.013 -9.572386,3.1293 -13.09375,5.5937 -5.892686,-7.84494 -16.727313,-5.1825 -25.125,-5.7812 0,0.8437 0,1.6875 0,2.5312 z"
         id="path3928"
         inkscape:connector-curvature="0" />
    </g>
    <path
       sodipodi:nodetypes="sscsscsscssssssssscssscssssssssscss"
       inkscape:connector-curvature="0"
       id="path3932"
       d="m 20.224174,1035.9006 c 2.833673,-0.9271 5.798114,-2.6951 8.048826,-4.8006 l 1.986016,-1.8578 0.791776,1.3511 c 1.070059,1.8258 3.348432,3.8691 5.311819,4.7637 2.295654,1.046 4.94404,1.3894 10.735251,1.3921 4.866819,0 5.064162,-0.025 5.265054,-0.6553 0.352683,-1.1112 -0.471494,-3.3328 -1.60594,-4.3289 -1.378676,-1.2105 -2.81328,-1.5711 -6.258256,-1.5732 -2.511931,0 -3.055662,-0.107 -4.530566,-0.8725 -4.012357,-2.0844 -5.257859,-7.0499 -2.990692,-11.9228 0.934479,-2.0086 3.884627,-4.8667 6.065313,-5.8762 1.544153,-0.7148 2.386073,-0.8666 5.716518,-1.0311 4.292462,-0.2119 5.461374,-0.5612 7.307338,-2.1818 0.959393,-0.8424 2.691238,-3.5431 2.691238,-4.1969 0,-0.092 -2.826964,-0.1665 -6.282148,-0.1665 -4.702558,0 -6.75916,0.1237 -8.179594,0.4917 -3.174033,0.8224 -6.512086,2.7389 -9.304779,5.3422 l -1.426024,1.3293 -1.094292,-1.6288 c -1.310399,-1.9503 -3.549468,-3.7235 -5.895995,-4.6691 -1.553658,-0.6261 -2.370421,-0.7029 -8.514389,-0.8008 l -6.795909,-0.1081 0,1.2841 c 0,1.7305 0.981292,3.5419 2.390666,4.4129 0.976917,0.6037 1.755958,0.7479 4.930842,0.9123 4.455922,0.2307 5.500071,0.6085 7.284126,2.6353 1.6853,1.9146 2.063602,3.1319 1.887164,6.0723 -0.24316,4.0525 -2.676412,7.663 -6.559022,9.7325 -1.798372,0.9584 -2.215176,1.0455 -6.051434,1.2637 -4.262955,0.2427 -5.145174,0.4919 -7.2115729,2.0378 -1.119133,0.8373 -2.1403608,2.3579 -2.4697594,3.6774 l -0.2236178,0.8955 6.5263791,-0.1461 c 5.431162,-0.1215 6.850138,-0.2519 8.455542,-0.7773 z"
       style="fill:#ffffff;fill-opacity:1;stroke:none" />
  </g>
</svg>
