<?xml version="1.0" encoding="UTF-8" standalone="no"?>
<!-- Created with Inkscape (http://www.inkscape.org/) -->

<svg
   xmlns:dc="http://purl.org/dc/elements/1.1/"
   xmlns:cc="http://creativecommons.org/ns#"
   xmlns:rdf="http://www.w3.org/1999/02/22-rdf-syntax-ns#"
   xmlns:svg="http://www.w3.org/2000/svg"
   xmlns="http://www.w3.org/2000/svg"
   xmlns:sodipodi="http://sodipodi.sourceforge.net/DTD/sodipodi-0.dtd"
   xmlns:inkscape="http://www.inkscape.org/namespaces/inkscape"
   width="96"
   height="96"
   id="svg4874"
   version="1.1"
   inkscape:version="0.91+devel r"
   viewBox="0 0 96 96.000001"
   sodipodi:docname="media-playlist-shuffle.svg">
  <defs
     id="defs4876" />
  <sodipodi:namedview
     id="base"
     pagecolor="#ffffff"
     bordercolor="#666666"
     borderopacity="1.0"
     inkscape:pageopacity="0.0"
     inkscape:pageshadow="2"
     inkscape:zoom="7.0249991"
     inkscape:cx="-33.05339"
     inkscape:cy="56.505327"
     inkscape:document-units="px"
     inkscape:current-layer="g4780"
     showgrid="true"
     showborder="true"
     fit-margin-top="0"
     fit-margin-left="0"
     fit-margin-right="0"
     fit-margin-bottom="0"
     inkscape:snap-bbox="true"
     inkscape:bbox-paths="true"
     inkscape:bbox-nodes="true"
     inkscape:snap-bbox-edge-midpoints="true"
     inkscape:snap-bbox-midpoints="true"
     inkscape:object-paths="true"
     inkscape:snap-intersection-paths="true"
     inkscape:object-nodes="true"
     inkscape:snap-smooth-nodes="true"
     inkscape:snap-midpoints="true"
     inkscape:snap-object-midpoints="true"
     inkscape:snap-center="true"
     showguides="true"
     inkscape:guide-bbox="true"
     inkscape:snap-global="true">
    <inkscape:grid
       type="xygrid"
       id="grid5451"
       empspacing="8" />
    <sodipodi:guide
       orientation="1,0"
       position="8,-8.0000001"
       id="guide4063" />
    <sodipodi:guide
       orientation="1,0"
       position="4,-8.0000001"
       id="guide4065" />
    <sodipodi:guide
       orientation="0,1"
       position="-8,88.000001"
       id="guide4067" />
    <sodipodi:guide
       orientation="0,1"
       position="-8,92.000001"
       id="guide4069" />
    <sodipodi:guide
       orientation="0,1"
       position="104,4"
       id="guide4071" />
    <sodipodi:guide
       orientation="0,1"
       position="-5,8.0000001"
       id="guide4073" />
    <sodipodi:guide
       orientation="1,0"
       position="88,-8.0000001"
       id="guide4077" />
    <sodipodi:guide
       orientation="0,1"
       position="-8,84.000001"
       id="guide4074" />
    <sodipodi:guide
       orientation="1,0"
       position="12,-8.0000001"
       id="guide4076" />
    <sodipodi:guide
       orientation="1,0"
       position="84,-8.0000001"
       id="guide4080" />
    <sodipodi:guide
       position="48,-8.0000001"
       orientation="1,0"
       id="guide4170" />
    <sodipodi:guide
       position="-8,48"
       orientation="0,1"
       id="guide4172" />
    <sodipodi:guide
       position="92,-8.0000001"
       orientation="1,0"
       id="guide4760" />
  </sodipodi:namedview>
  <metadata
     id="metadata4879">
    <rdf:RDF>
      <cc:Work
         rdf:about="">
        <dc:format>image/svg+xml</dc:format>
        <dc:type
           rdf:resource="http://purl.org/dc/dcmitype/StillImage" />
        <dc:title></dc:title>
      </cc:Work>
    </rdf:RDF>
  </metadata>
  <g
     inkscape:label="Layer 1"
     inkscape:groupmode="layer"
     id="layer1"
     transform="translate(67.857146,-78.50504)">
    <g
       transform="matrix(0,-1,-1,0,373.50506,516.50504)"
       id="g4845"
       style="display:inline">
      <g
         inkscape:export-ydpi="90"
         inkscape:export-xdpi="90"
         inkscape:export-filename="next01.png"
         transform="matrix(-0.9996045,0,0,1,575.94296,-611.00001)"
         id="g4778"
         inkscape:label="Layer 1">
        <g
           transform="matrix(-1,0,0,1,575.99999,611)"
           id="g4780"
           style="display:inline">
          <rect
             style="color:#000000;display:inline;overflow:visible;visibility:visible;fill:none;stroke:none;stroke-width:4;marker:none;enable-background:accumulate"
             id="rect4782"
             width="96.037987"
             height="96"
             x="-438.00244"
             y="345.36221"
             transform="scale(-1,1)" />
          <path
             style="color:#000000;display:inline;overflow:visible;visibility:visible;fill:#808080;fill-opacity:1;fill-rule:nonzero;stroke:none;stroke-width:3;marker:none;enable-background:accumulate"
             d="m 397.94271,371.36222 c 0,0 4.92115,-11.74727 12.01661,-22.02297 0.004,0 0.006,9.8e-4 0.008,0.004 0.006,9.7e-4 0.006,0.004 0.008,0.006 0.005,0.002 0.007,0.004 0.008,0.006 0.005,0.002 0.005,0.002 0.008,0.004 7.33765,10.82654 12.00573,21.98779 12.00573,21.98779 z"
             id="path2194-7"
             inkscape:connector-curvature="0"
             inkscape:transform-center-x="11.119949"
             inkscape:transform-center-y="-0.011096303"
             sodipodi:nodetypes="ccsssccc" />
          <path
             style="color:#000000;font-style:normal;font-variant:normal;font-weight:normal;font-stretch:normal;font-size:medium;line-height:normal;font-family:sans-serif;-inkscape-font-specification:sans-serif;font-variant-ligatures:none;font-variant-position:normal;font-variant-caps:normal;font-variant-numeric:normal;font-variant-alternates:normal;font-feature-settings:normal;text-indent:0;text-align:start;text-decoration:none;text-decoration-line:none;text-decoration-style:solid;text-decoration-color:#000000;letter-spacing:normal;word-spacing:normal;text-transform:none;direction:ltr;block-progression:tb;writing-mode:lr-tb;baseline-shift:baseline;text-anchor:start;white-space:normal;shape-padding:0;clip-rule:nonzero;display:inline;overflow:visible;visibility:visible;opacity:1;isolation:auto;mix-blend-mode:normal;color-interpolation:sRGB;color-interpolation-filters:linearRGB;solid-color:#000000;solid-opacity:1;fill:#808080;fill-opacity:1;fill-rule:nonzero;stroke:none;stroke-width:4.00079107;stroke-linecap:butt;stroke-linejoin:miter;stroke-miterlimit:4;stroke-dasharray:none;stroke-dashoffset:0;stroke-opacity:1;marker:none;color-rendering:auto;image-rendering:auto;shape-rendering:auto;text-rendering:auto;enable-background:accumulate"
             d="m 408.02734,369.36133 0,10 c 0,9.95118 -5.96767,16.79036 -11.59179,20.80078 -5.49243,3.91652 -10.79151,5.47113 -11.09961,5.56055 l 0.0488,0 -0.24415,0.0723 c 0,0 -0.006,0.002 -0.006,0.002 l -0.0215,0.006 -0.002,0 c -0.003,7.9e-4 -4.86011,1.39739 -9.71875,4.85938 -4.82071,3.43498 -9.45313,8.69955 -9.45313,16.69922 l 0,10 4,0 0,-10 c 0,-6.50687 3.48556,-10.38275 7.77539,-13.43945 4.08059,-2.9076 7.97823,-4.10068 8.29883,-4.19727 l 0.13281,0 0.38086,-0.19141 c 0.46246,-0.13357 6.20311,-1.81726 12.23047,-6.11523 6.30256,-4.4942 13.26953,-12.50128 13.26953,-24.05664 l 0,-10 -4,0 z"
             id="path4091"
             inkscape:connector-curvature="0" />
          <path
             sodipodi:nodetypes="ccsssccc"
             inkscape:transform-center-y="-0.011096303"
             inkscape:transform-center-x="11.119949"
             inkscape:connector-curvature="0"
             id="path4203"
             d="m 353.92527,371.36222 c 0,0 4.92115,-11.74727 12.01661,-22.02297 0.004,0 0.006,9.8e-4 0.008,0.004 0.006,9.7e-4 0.006,0.004 0.008,0.006 0.005,0.002 0.007,0.004 0.008,0.006 0.005,0.002 0.005,0.002 0.008,0.004 7.33765,10.82654 12.00573,21.98779 12.00573,21.98779 z"
             style="color:#000000;display:inline;overflow:visible;visibility:visible;fill:#808080;fill-opacity:1;fill-rule:nonzero;stroke:none;stroke-width:3;marker:none;enable-background:accumulate" />
          <path
             style="color:#000000;font-style:normal;font-variant:normal;font-weight:normal;font-stretch:normal;font-size:medium;line-height:normal;font-family:sans-serif;-inkscape-font-specification:sans-serif;text-indent:0;text-align:start;text-decoration:none;text-decoration-line:none;text-decoration-style:solid;text-decoration-color:#000000;letter-spacing:normal;word-spacing:normal;text-transform:none;direction:ltr;block-progression:tb;writing-mode:lr-tb;baseline-shift:baseline;text-anchor:start;white-space:normal;clip-rule:nonzero;display:inline;overflow:visible;visibility:visible;opacity:1;isolation:auto;mix-blend-mode:normal;color-interpolation:sRGB;color-interpolation-filters:linearRGB;solid-color:#000000;solid-opacity:1;fill:#808080;fill-opacity:1;fill-rule:nonzero;stroke:none;stroke-width:4.00079107;stroke-linecap:butt;stroke-linejoin:miter;stroke-miterlimit:4;stroke-dasharray:none;stroke-dashoffset:0;stroke-opacity:1;marker:none;color-rendering:auto;image-rendering:auto;shape-rendering:auto;text-rendering:auto;enable-background:accumulate"
             d="M 4 27.964844 L 4 31.964844 L 14 31.964844 C 20.50687 31.964844 24.382753 35.448195 27.439453 39.736328 C 28.669071 41.461314 29.577133 43.136085 30.240234 44.539062 C 30.838916 43.255395 31.590562 41.81613 32.509766 40.271484 C 31.978275 39.341604 31.389956 38.385027 30.699219 37.416016 C 27.264239 32.597212 21.99967 27.964844 14 27.964844 L 4 27.964844 z M 39.052734 55.058594 C 38.707092 56.047075 38.076504 57.655386 37.134766 59.556641 C 37.402751 59.961411 37.651615 60.362512 37.943359 60.771484 C 42.437559 67.071552 50.44464 74.035156 62 74.035156 L 72 74.035156 L 72.001953 74.035156 L 72.001953 70.035156 L 62.001953 70.035156 C 52.050773 70.035156 45.211592 64.071114 41.201172 58.449219 C 40.375771 57.292158 39.676722 56.153461 39.052734 55.058594 z "
             transform="matrix(0,-1,-1.0003957,0,438.00245,441.36222)"
             id="path4205" />
        </g>
      </g>
    </g>
  </g>
</svg>
