<?xml version="1.0" encoding="UTF-8" standalone="no"?>
<!-- Created with Inkscape (http://www.inkscape.org/) -->

<svg
   xmlns:dc="http://purl.org/dc/elements/1.1/"
   xmlns:cc="http://creativecommons.org/ns#"
   xmlns:rdf="http://www.w3.org/1999/02/22-rdf-syntax-ns#"
   xmlns:svg="http://www.w3.org/2000/svg"
   xmlns="http://www.w3.org/2000/svg"
   version="1.1"
   width="90"
   height="90"
   viewBox="0 0 90 90.000001"
   id="svg4874">
  <defs
     id="defs4876" />
  <metadata
     id="metadata4879">
    <rdf:RDF>
      <cc:Work
         rdf:about="">
        <dc:format>image/svg+xml</dc:format>
        <dc:type
           rdf:resource="http://purl.org/dc/dcmitype/StillImage" />
        <dc:title></dc:title>
      </cc:Work>
    </rdf:RDF>
  </metadata>
  <g
     transform="translate(67.857146,-84.50504)"
     id="layer1">
    <g
       transform="matrix(0,-1,-1,0,373.50506,516.50504)"
       id="g4845"
       style="display:inline">
      <g
         transform="matrix(0,-1,-1,0,1394.3622,441.36221)"
         id="layer1-8">
        <rect
           width="90"
           height="90"
           x="0"
           y="962.36218"
           id="rect4198"
           style="color:#000000;fill:none;stroke:none;stroke-width:7.5;marker:none;visibility:visible;display:inline;overflow:visible;enable-background:accumulate" />
        <g
           transform="translate(-60,548.00002)"
           id="g4978">
          <rect
             width="90"
             height="90"
             x="0"
             y="1.7382814e-05"
             transform="translate(60,414.36216)"
             id="rect3038"
             style="color:#000000;fill:none;stroke:none;stroke-width:6;marker:none;visibility:visible;display:inline;overflow:visible;enable-background:accumulate" />
          <path
             d="m 122.004,452.36218 c 0,0 13.33454,-5.94407 24.996,-14.50813 0,-0.003 0,-0.006 -0.005,-0.009 0,-0.003 -0.005,-0.007 -0.006,-0.01 0,-0.003 -0.005,-0.007 -0.006,-0.01 0,-0.003 -0.005,-0.007 -0.005,-0.01 C 134.67816,428.97946 122,423.36218 122,423.36218 z"
             id="path2194-83"
             style="opacity:0.98000004;color:#000000;fill:#264c91;fill-opacity:1;fill-rule:nonzero;stroke:none;stroke-width:3;marker:none;visibility:visible;display:inline;overflow:visible;enable-background:accumulate" />
          <path
             d="m 63.000003,433.36218 0,9.17578 10,0 c 7.253267,0 11.824479,4.13063 15.070312,8.76563 0.14643,0.2091 0.269548,0.41435 0.408204,0.62304 0.956194,-2.32027 2.468733,-5.4233 4.71875,-8.76172 -4.414984,-5.10845 -11.107707,-9.80273 -20.197266,-9.80273 l -10,0 z m 42.519527,33.44336 c -0.98206,2.37138 -2.5104,5.45969 -4.72265,8.75 4.4269,5.11286 11.12286,9.80664 20.20312,9.80664 l 10,0 0,-9.17578 -10,0 c -7.24673,0 -11.84098,-4.14653 -15.10547,-8.80469 -0.13501,-0.19265 -0.24654,-0.38382 -0.375,-0.57617 z"
             id="path4093"
             style="font-style:normal;font-variant:normal;font-weight:normal;font-stretch:normal;text-indent:0;text-align:start;text-decoration:none;line-height:normal;letter-spacing:normal;word-spacing:normal;text-transform:none;direction:ltr;block-progression:tb;writing-mode:lr-tb;text-anchor:start;baseline-shift:baseline;color:#000000;fill:#264c91;fill-opacity:1;stroke:none;stroke-width:9;marker:none;visibility:visible;display:inline;overflow:visible;enable-background:accumulate;font-family:sans-serif;-inkscape-font-specification:sans-serif" />
          <path
             d="m 121,433.36218 c -10.75327,0 -18.17542,6.58073 -22.427731,12.64844 -4.252313,6.06771 -5.931641,12.12695 -5.931641,12.12695 l -0.002,0.004 0,0.004 c 0,0 -1.322524,4.64038 -4.56836,9.27539 -3.245834,4.635 -7.817046,8.76563 -15.070312,8.76563 l -10,0 0,9.17578 10,0 c 10.746734,0 18.157165,-6.55653 22.394531,-12.60742 4.233069,-6.04477 5.895063,-12.07565 5.898433,-12.08789 l 0.002,-0.008 c 0.003,-0.0122 1.33939,-4.66241 4.5996,-9.31446 3.26449,-4.65816 7.85874,-8.80664 15.10547,-8.80664 l 10,0 0,-9.17578 -10,0 z"
             id="path4091"
             style="font-style:normal;font-variant:normal;font-weight:normal;font-stretch:normal;text-indent:0;text-align:start;text-decoration:none;line-height:normal;letter-spacing:normal;word-spacing:normal;text-transform:none;direction:ltr;block-progression:tb;writing-mode:lr-tb;text-anchor:start;baseline-shift:baseline;color:#000000;fill:#264c91;fill-opacity:1;stroke:none;stroke-width:9;marker:none;visibility:visible;display:inline;overflow:visible;enable-background:accumulate;font-family:sans-serif;-inkscape-font-specification:sans-serif" />
          <path
             d="m 122.004,495.36218 c 0,0 13.33454,-5.94407 24.996,-14.50813 0,-0.003 0,-0.006 -0.005,-0.009 0,-0.003 -0.005,-0.007 -0.006,-0.01 0,-0.003 -0.005,-0.007 -0.006,-0.01 0,-0.003 -0.005,-0.007 -0.005,-0.01 C 134.67816,471.97946 122,466.36218 122,466.36218 z"
             id="path4282"
             style="color:#000000;fill:#264c91;fill-opacity:1;fill-rule:nonzero;stroke:none;stroke-width:3;marker:none;visibility:visible;display:inline;overflow:visible;enable-background:accumulate" />
        </g>
      </g>
    </g>
  </g>
</svg>
