<?xml version="1.0" encoding="UTF-8" standalone="no"?>
<!-- Created with Inkscape (http://www.inkscape.org/) -->

<svg
   xmlns:dc="http://purl.org/dc/elements/1.1/"
   xmlns:cc="http://creativecommons.org/ns#"
   xmlns:rdf="http://www.w3.org/1999/02/22-rdf-syntax-ns#"
   xmlns:svg="http://www.w3.org/2000/svg"
   xmlns="http://www.w3.org/2000/svg"
   version="1.1"
   width="90"
   height="90"
   id="svg3747">
  <defs
     id="defs11" />
  <metadata
     id="metadata3752">
    <rdf:RDF>
      <cc:Work
         rdf:about="">
        <dc:format>image/svg+xml</dc:format>
        <dc:type
           rdf:resource="http://purl.org/dc/dcmitype/StillImage" />
        <dc:title></dc:title>
      </cc:Work>
    </rdf:RDF>
  </metadata>
  <path
     d="m 80.0978,71 c 0,6.75 -3.1e-5,9.023722 -9.0978,9 L 18.994438,79.864396 c -9.0977689,-0.02372 -9.0977998,-2.25 -9.0978998,-9 -5e-5,-6.75 7.09e-5,-9.023723 9.0978998,-9 L 71,62 c 9.097769,0.02372 9.0978,2.25 9.0978,9 z"
     id="path4185"
     style="color:#000000;fill:#808080" />
  <path
     d="m 80.0978,45.067802 c 0,6.75 -3.1e-5,9.023722 -9.0978,9 L 18.994438,53.932198 c -9.0977689,-0.02372 -9.0977998,-2.25 -9.0978998,-9 -5e-5,-6.75 7.09e-5,-9.023723 9.0978998,-9 L 71,36.067802 c 9.097769,0.02372 9.0978,2.25 9.0978,9 z"
     id="path2997"
     style="color:#000000;fill:#808080" />
  <path
     d="m 80.0978,19 c 0,6.75 -3.1e-5,9.023722 -9.0978,9 L 18.994438,27.864396 c -9.0977689,-0.02372 -9.0977998,-2.25 -9.0978998,-9 -5e-5,-6.75 7.09e-5,-9.023723 9.0978998,-9 L 71,10 c 9.097769,0.02372 9.0978,2.25 9.0978,9 z"
     id="path2999"
     style="color:#000000;fill:#808080" />
</svg>
