<?xml version="1.0" encoding="UTF-8" standalone="no"?>
<!-- Created with Inkscape (http://www.inkscape.org/) -->

<svg
   xmlns:dc="http://purl.org/dc/elements/1.1/"
   xmlns:cc="http://creativecommons.org/ns#"
   xmlns:rdf="http://www.w3.org/1999/02/22-rdf-syntax-ns#"
   xmlns:svg="http://www.w3.org/2000/svg"
   xmlns="http://www.w3.org/2000/svg"
   xmlns:sodipodi="http://sodipodi.sourceforge.net/DTD/sodipodi-0.dtd"
   xmlns:inkscape="http://www.inkscape.org/namespaces/inkscape"
   width="90"
   height="90"
   id="svg3747"
   version="1.1"
   inkscape:version="0.48.4 r9939"
   sodipodi:docname="stop.svg">
  <defs
     id="defs3749" />
  <sodipodi:namedview
     id="base"
     pagecolor="#ffffff"
     bordercolor="#666666"
     borderopacity="1.0"
     inkscape:pageopacity="0.0"
     inkscape:pageshadow="2"
     inkscape:zoom="16"
     inkscape:cx="54.626273"
     inkscape:cy="45.193254"
     inkscape:document-units="px"
     inkscape:current-layer="g4171"
     showgrid="true"
     fit-margin-top="0"
     fit-margin-left="0"
     fit-margin-right="0"
     fit-margin-bottom="0"
     inkscape:window-width="2880"
     inkscape:window-height="1733"
     inkscape:window-x="-12"
     inkscape:window-y="32"
     inkscape:window-maximized="1">
    <inkscape:grid
       type="xygrid"
       id="grid3012"
       empspacing="6"
       visible="true"
       enabled="true"
       snapvisiblegridlinesonly="true"
       originx="0px"
       originy="1.3134766e-05px" />
  </sodipodi:namedview>
  <metadata
     id="metadata3752">
    <rdf:RDF>
      <cc:Work
         rdf:about="">
        <dc:format>image/svg+xml</dc:format>
        <dc:type
           rdf:resource="http://purl.org/dc/dcmitype/StillImage" />
        <dc:title></dc:title>
      </cc:Work>
    </rdf:RDF>
  </metadata>
  <g
     inkscape:label="Layer 1"
     inkscape:groupmode="layer"
     id="layer1"
     transform="translate(-144,-962.36221)">
    <g
       transform="translate(-198,611)"
       id="g4171">
      <g
         id="g8374"
         transform="translate(-36.724088,-20.488937)"
         style="fill:#808080;fill-opacity:1">
        <path
           transform="translate(385.44757,369.34011)"
           d="m 30,68.499985 c 0,4.69442 -5.372583,8.5 -12,8.5 -6.627417,0 -12,-3.80558 -12,-8.5 0,-4.694421 5.372583,-8.5 12,-8.5 6.627417,0 12,3.805579 12,8.5 z"
           sodipodi:ry="8.5"
           sodipodi:rx="12"
           sodipodi:cy="68.499985"
           sodipodi:cx="18"
           id="path7774"
           style="fill:#808080;fill-opacity:1;stroke:none"
           sodipodi:type="arc" />
        <path
           id="path7778"
           d="m 412.15625,396.0625 a 3.250325,3.250325 0 0 0 -3.1875,3.3125 l 0,38 a 3.250325,3.250325 0 1 0 6.5,0 l 0,-38 a 3.250325,3.250325 0 0 0 -3.3125,-3.3125 z"
           style="font-size:medium;font-style:normal;font-variant:normal;font-weight:normal;font-stretch:normal;text-indent:0;text-align:start;text-decoration:none;line-height:normal;letter-spacing:normal;word-spacing:normal;text-transform:none;direction:ltr;block-progression:tb;writing-mode:lr-tb;text-anchor:start;baseline-shift:baseline;color:#000000;fill:#808080;fill-opacity:1;fill-rule:nonzero;stroke:none;stroke-width:6.50000000000000000;marker:none;visibility:visible;display:inline;overflow:visible;enable-background:accumulate;font-family:Sans;-inkscape-font-specification:Sans"
           inkscape:connector-curvature="0" />
        <path
           sodipodi:type="arc"
           style="fill:#808080;fill-opacity:1;stroke:none"
           id="path8288"
           sodipodi:cx="18"
           sodipodi:cy="68.499985"
           sodipodi:rx="12"
           sodipodi:ry="8.5"
           d="m 30,68.499985 c 0,4.69442 -5.372583,8.5 -12,8.5 -6.627417,0 -12,-3.80558 -12,-8.5 0,-4.694421 5.372583,-8.5 12,-8.5 6.627417,0 12,3.805579 12,8.5 z"
           transform="translate(426,361.36221)" />
        <path
           id="path8290"
           d="M 452.6875,388.0625 A 3.250325,3.250325 0 0 0 449.5,391.375 l 0,38 a 3.250325,3.250325 0 1 0 6.5,0 l 0,-38 a 3.250325,3.250325 0 0 0 -3.3125,-3.3125 z"
           style="font-size:medium;font-style:normal;font-variant:normal;font-weight:normal;font-stretch:normal;text-indent:0;text-align:start;text-decoration:none;line-height:normal;letter-spacing:normal;word-spacing:normal;text-transform:none;direction:ltr;block-progression:tb;writing-mode:lr-tb;text-anchor:start;baseline-shift:baseline;color:#000000;fill:#808080;fill-opacity:1;fill-rule:nonzero;stroke:none;stroke-width:6.50000000000000000;marker:none;visibility:visible;display:inline;overflow:visible;enable-background:accumulate;font-family:Sans;-inkscape-font-specification:Sans"
           inkscape:connector-curvature="0" />
        <path
           id="rect8294"
           d="m 409,393.3622 c 0,-1 1,-1 1,-1 13,-3 19.20498,-5 45,-5 1,0 0.95827,1 1,1 0,6 0,6 0,6 0,0 -15.16667,3 -23,4 -7.83333,1 -24,2 -24,2 0,0 0,0 0,-7 z"
           style="fill:#808080;fill-opacity:1;stroke:none"
           inkscape:connector-curvature="0" />
      </g>
    </g>
  </g>
</svg>
