<?xml version="1.0" encoding="UTF-8" standalone="no"?>
<!-- Created with Inkscape (http://www.inkscape.org/) -->

<svg
   xmlns:dc="http://purl.org/dc/elements/1.1/"
   xmlns:cc="http://creativecommons.org/ns#"
   xmlns:rdf="http://www.w3.org/1999/02/22-rdf-syntax-ns#"
   xmlns:svg="http://www.w3.org/2000/svg"
   xmlns="http://www.w3.org/2000/svg"
   version="1.1"
   width="500"
   height="375"
   id="svg2989">
  <defs
     id="defs2991">
    <filter
       color-interpolation-filters="sRGB"
       id="filter3769">
      <feGaussianBlur
         result="result8"
         stdDeviation="4"
         id="feGaussianBlur3771" />
      <feOffset
         result="result11"
         dy="4"
         dx="4"
         id="feOffset3773" />
      <feComposite
         in2="result11"
         operator="in"
         in="SourceGraphic"
         result="result6"
         id="feComposite3775" />
      <feFlood
         flood-color="rgb(0,0,0)"
         flood-opacity="1"
         in="result6"
         result="result10"
         id="feFlood3777" />
      <feBlend
         in2="result10"
         mode="normal"
         in="result6"
         result="result12"
         id="feBlend3779" />
      <feComposite
         in2="SourceGraphic"
         operator="in"
         result="result2"
         id="feComposite3781" />
      <feDisplacementMap
         in2="result2"
         scale="0"
         xChannelSelector="A"
         yChannelSelector="A"
         result="result13"
         id="feDisplacementMap3783" />
      <feDisplacementMap
         in2="result13"
         scale="0"
         xChannelSelector="A"
         yChannelSelector="A"
         id="feDisplacementMap3785" />
    </filter>
    <filter
       color-interpolation-filters="sRGB"
       id="filter3803">
      <feGaussianBlur
         result="result8"
         stdDeviation="4"
         id="feGaussianBlur3805" />
      <feOffset
         result="result11"
         dy="4"
         dx="4"
         id="feOffset3807" />
      <feComposite
         in2="result11"
         operator="in"
         in="SourceGraphic"
         result="result6"
         id="feComposite3809" />
      <feFlood
         flood-color="rgb(0,0,0)"
         flood-opacity="1"
         in="result6"
         result="result10"
         id="feFlood3811" />
      <feBlend
         in2="result10"
         mode="normal"
         in="result6"
         result="result12"
         id="feBlend3813" />
      <feComposite
         in2="SourceGraphic"
         operator="in"
         result="result2"
         id="feComposite3815" />
    </filter>
    <filter
       color-interpolation-filters="sRGB"
       id="filter3916">
      <feGaussianBlur
         id="feGaussianBlur3918"
         stdDeviation="1.7178125" />
    </filter>
    <filter
       color-interpolation-filters="sRGB"
       id="filter3935">
      <feGaussianBlur
         id="feGaussianBlur3937"
         stdDeviation="0.25767187" />
    </filter>
    <filter
       color-interpolation-filters="sRGB"
       id="filter3956">
      <feGaussianBlur
         id="feGaussianBlur3958"
         stdDeviation="5.1800002" />
    </filter>
    <filter
       color-interpolation-filters="sRGB"
       id="filter4047">
      <feGaussianBlur
         id="feGaussianBlur4049"
         stdDeviation="4.9693037" />
    </filter>
    <clipPath
       id="clipPath4057">
      <path
         d="m 8,181.50003 234,-175.5 c 4.432,-3.324 11.568,-3.324 16,0 l 234,175.49999 c 4.432,3.324 4.432,8.676 0,12 L 258,369.00003 c -4.432,3.324 -11.568,3.324 -16,0 l -234,-175.5 c -4.432,-3.324 -4.432,-8.676 0,-12 z"
         id="path4059"
         style="fill:#ff0000;fill-opacity:1;stroke:none" />
    </clipPath>
  </defs>
  <metadata
     id="metadata2994">
    <rdf:RDF>
      <cc:Work
         rdf:about="">
        <dc:format>image/svg+xml</dc:format>
        <dc:type
           rdf:resource="http://purl.org/dc/dcmitype/StillImage" />
        <dc:title></dc:title>
      </cc:Work>
    </rdf:RDF>
  </metadata>
  <g
     transform="translate(0,-677.36217)"
     id="layer1">
    <path
       d="m 8,858.8622 234,-175.5 c 4.432,-3.324 11.568,-3.324 16,0 l 234,175.49999 c 4.432,3.324 4.432,8.676 0,12 L 258,1046.3622 c -4.432,3.324 -11.568,3.324 -16,0 L 8,870.8622 c -4.432,-3.324 -4.432,-8.676 0,-12 z"
       id="path4044"
       style="fill:#000000;fill-opacity:0.04718221;stroke:none" />
    <path
       d="m 250.09375,-30.21875 c -24.34762,0.38057 -41.84962,19.7376 -59.96875,33.3125 -70.47979,53.43613 -143.190252,104.13809 -211.40625,160.46875 -15.744924,18.83603 -6.950377,49.89183 13.75,61.28125 29.478643,19.64278 57.208633,42.73839 86,63.78125 50.87,38.498 101.61566,77.1605 154.09375,113.4375 21.66168,8.2136 45.69806,-1.69695 61.125,-17.40625 75.52606,-58.7418 154.63803,-112.90099 228.46875,-173.8125 15.02961,-20.34253 4.95919,-52.82423 -18.0625,-62.375 C 425.34946,89.93809 348.1933,29.21173 267.78125,-27 c -5.61672,-2.16095 -11.64943,-3.37708 -17.6875,-3.21875 z M 250,3.5 c 2.892,0 5.784,0.838 8,2.5 l 234,175.5 c 4.432,3.324 4.432,8.676 0,12 L 258,369 c -4.432,3.324 -11.568,3.324 -16,0 L 8,193.5 c -4.4320001,-3.324 -4.4320001,-8.676 0,-12 L 242,6 c 2.216,-1.662 5.108,-2.5 8,-2.5 z"
       transform="translate(0,677.36217)"
       clip-path="url(#clipPath4057)"
       id="rect4007"
       style="fill:#000000;fill-opacity:1;stroke:none;filter:url(#filter4047)" />
  </g>
</svg>
