<?xml version="1.0" encoding="UTF-8" standalone="no"?>
<!-- Created with Inkscape (http://www.inkscape.org/) -->

<svg
   xmlns:dc="http://purl.org/dc/elements/1.1/"
   xmlns:cc="http://creativecommons.org/ns#"
   xmlns:rdf="http://www.w3.org/1999/02/22-rdf-syntax-ns#"
   xmlns:svg="http://www.w3.org/2000/svg"
   xmlns="http://www.w3.org/2000/svg"
   version="1.1"
   width="90"
   height="90"
   id="svg3140">
  <defs
     id="defs12" />
  <metadata
     id="metadata3145">
    <rdf:RDF>
      <cc:Work
         rdf:about="">
        <dc:format>image/svg+xml</dc:format>
        <dc:type
           rdf:resource="http://purl.org/dc/dcmitype/StillImage" />
        <dc:title></dc:title>
      </cc:Work>
    </rdf:RDF>
  </metadata>
  <rect
     width="90"
     height="90"
     x="0"
     y="-1.4648437e-05"
     id="rect4198"
     style="color:#000000;fill:none" />
  <path
     d="m 6,24 v 42 c 0,18 3,18 30,18 h 18 c 27,0 30,0 30,-18 V 24 C 84,6 81,6 54,6 H 36 C 9,6 6,6 6,24 z M 36,12 h 18 c 24,0 24,0 24,12 v 42 c 0,12 0,12 -24,12 H 36 C 12,78 12,78 12,66 V 24 C 12,12 12,12 36,12 z"
     id="path3759"
     style="fill:#808080" />
  <rect
     width="90"
     height="90"
     x="0"
     y="1.7382999e-05"
     id="rect3045"
     style="color:#000000;fill:none" />
</svg>
