<?xml version="1.0" encoding="UTF-8" standalone="no"?>
<!-- Created with Inkscape (http://www.inkscape.org/) -->

<svg
   xmlns:dc="http://purl.org/dc/elements/1.1/"
   xmlns:cc="http://creativecommons.org/ns#"
   xmlns:rdf="http://www.w3.org/1999/02/22-rdf-syntax-ns#"
   xmlns:svg="http://www.w3.org/2000/svg"
   xmlns="http://www.w3.org/2000/svg"
   xmlns:xlink="http://www.w3.org/1999/xlink"
   xmlns:sodipodi="http://sodipodi.sourceforge.net/DTD/sodipodi-0.dtd"
   xmlns:inkscape="http://www.inkscape.org/namespaces/inkscape"
   width="40"
   height="40"
   id="svg2"
   version="1.1"
   inkscape:version="0.48.3.1 r9886"
   inkscape:export-filename="/home/micha/Develop/xbmcremote/qml/xbmcremote/harmattan/icons/repeat-one-white.png"
   inkscape:export-xdpi="90"
   inkscape:export-ydpi="90"
   sodipodi:docname="repeat.svg">
  <defs
     id="defs4">
    <linearGradient
       id="linearGradient3762">
      <stop
         style="stop-color:#bfbfbf;stop-opacity:1;"
         offset="0"
         id="stop3764" />
      <stop
         style="stop-color:#f7f7f7;stop-opacity:1;"
         offset="1"
         id="stop3766" />
    </linearGradient>
    <linearGradient
       inkscape:collect="always"
       xlink:href="#linearGradient3762"
       id="linearGradient3768"
       x1="430"
       y1="726.36218"
       x2="430"
       y2="758.36218"
       gradientUnits="userSpaceOnUse" />
  </defs>
  <sodipodi:namedview
     id="base"
     pagecolor="#ffffff"
     bordercolor="#666666"
     borderopacity="1.0"
     inkscape:pageopacity="0.0"
     inkscape:pageshadow="2"
     inkscape:zoom="17.225"
     inkscape:cx="10.449927"
     inkscape:cy="20"
     inkscape:document-units="px"
     inkscape:current-layer="layer3"
     showgrid="true"
     fit-margin-top="0"
     fit-margin-left="0"
     fit-margin-right="0"
     fit-margin-bottom="0"
     inkscape:window-width="1440"
     inkscape:window-height="857"
     inkscape:window-x="-2"
     inkscape:window-y="20"
     inkscape:window-maximized="1">
    <inkscape:grid
       type="xygrid"
       id="grid2985"
       empspacing="5"
       visible="true"
       enabled="true"
       snapvisiblegridlinesonly="true"
       originx="-410.32498px"
       originy="-289.10669px" />
  </sodipodi:namedview>
  <metadata
     id="metadata7">
    <rdf:RDF>
      <cc:Work
         rdf:about="">
        <dc:format>image/svg+xml</dc:format>
        <dc:type
           rdf:resource="http://purl.org/dc/dcmitype/StillImage" />
        <dc:title></dc:title>
      </cc:Work>
    </rdf:RDF>
  </metadata>
  <g
     inkscape:label="Repeat none black"
     inkscape:groupmode="layer"
     id="layer1"
     transform="translate(-410.32498,-723.25549)"
     style="display:none">
    <path
       style="font-size:medium;font-style:normal;font-variant:normal;font-weight:normal;font-stretch:normal;text-indent:0;text-align:start;text-decoration:none;line-height:normal;letter-spacing:normal;word-spacing:normal;text-transform:none;direction:ltr;block-progression:tb;writing-mode:lr-tb;text-anchor:start;baseline-shift:baseline;color:#000000;fill:url(#linearGradient3768);fill-opacity:1;stroke:none;stroke-width:5;marker:none;visibility:visible;display:inline;overflow:visible;enable-background:accumulate;font-family:Sans;-inkscape-font-specification:Sans"
       d="m 425.20895,727.90943 c -0.8449,0.0441 -1.6449,0.58788 -1.9968,1.35727 -0.35189,0.76939 -0.24004,1.73023 0.27918,2.39822 l 2.76566,3.69726 -4.62885,0 c -3.83049,0 -6.98695,3.15646 -6.98695,6.98695 l 0,7.45275 c 0,3.83049 3.15646,6.98695 6.98695,6.98695 l 16.76868,0 c 3.83049,0 6.98695,-3.15646 6.98695,-6.98695 l 0,-7.45275 c 0,-3.83049 -3.15646,-6.98695 -6.98695,-6.98695 l -2.71907,-0.0171 0.72781,0.96071 1.04804,1.39739 -1.04804,1.39739 -0.66958,0.90248 2.66084,0.0171 c 1.33051,0.009 2.32898,0.99844 2.32898,2.32898 l 0,7.45275 c 0,1.33054 -0.99844,2.32898 -2.32898,2.32898 l -16.76868,0 c -1.33054,0 -2.32898,-0.99844 -2.32898,-2.32898 l 0,-7.45275 c 0,-1.33054 0.99844,-2.32898 2.32898,-2.32898 l 4.68708,0 -2.82389,3.75548 c -0.75218,0.97391 -0.53855,2.54878 0.44589,3.28712 0.98444,0.73833 2.55614,0.50245 3.28048,-0.49234 l 5.58956,-7.45274 1.04804,-1.39739 -1.04804,-1.39739 -5.58956,-7.45275 c -0.45362,-0.62697 -1.23595,-1.00113 -2.00875,-0.96071 z"
       id="rect3148"
       inkscape:connector-curvature="0"
       sodipodi:nodetypes="csccsssssssscccccssssssssccscccccc" />
  </g>
  <g
     inkscape:groupmode="layer"
     id="layer2"
     inkscape:label="Repeat none white"
     style="display:none">
    <path
       style="font-size:medium;font-style:normal;font-variant:normal;font-weight:normal;font-stretch:normal;text-indent:0;text-align:start;text-decoration:none;line-height:normal;letter-spacing:normal;word-spacing:normal;text-transform:none;direction:ltr;block-progression:tb;writing-mode:lr-tb;text-anchor:start;baseline-shift:baseline;color:#000000;fill:#000000;fill-opacity:1;stroke:none;stroke-width:5;marker:none;visibility:visible;display:inline;overflow:visible;enable-background:accumulate;font-family:Sans;-inkscape-font-specification:Sans"
       d="M 14.883971,4.6539424 C 14.039075,4.6980338 13.239065,5.241818 12.887173,6.0112112 12.53528,6.7806044 12.647129,7.74144 13.166346,8.4094284 l 2.765668,3.6972616 -4.628855,0 c -3.8304886,0 -6.9869507,3.156462 -6.9869507,6.986951 l 0,7.452747 c 0,3.830489 3.1564621,6.986951 6.9869507,6.986951 l 16.768682,0 c 3.830489,0 6.986951,-3.156462 6.986951,-6.986951 l 0,-7.452747 c 0,-3.830489 -3.156462,-6.986951 -6.986951,-6.986951 l -2.71907,-0.01706 0.727808,0.960705 1.048042,1.39739 -1.048042,1.397391 -0.669583,0.902481 2.660845,0.01706 c 1.330512,0.0086 2.328984,0.998445 2.328984,2.328984 l 0,7.452747 c 0,1.330539 -0.998445,2.328984 -2.328984,2.328984 l -16.768682,0 c -1.330539,0 -2.3289835,-0.998445 -2.3289835,-2.328984 l 0,-7.452747 c 0,-1.330539 0.9984445,-2.328984 2.3289835,-2.328984 l 4.68708,0 -2.823893,3.755486 c -0.75218,0.973905 -0.538549,2.54878 0.445895,3.287113 0.984444,0.738332 2.556141,0.502454 3.280479,-0.492332 l 5.58956,-7.452748 1.048043,-1.39739 -1.048043,-1.39739 -5.58956,-7.4527479 C 16.439103,4.987681 15.656774,4.6135236 14.883971,4.6539424 z"
       id="rect3148-0"
       inkscape:connector-curvature="0"
       sodipodi:nodetypes="csccsssssssscccccssssssssccscccccc" />
  </g>
  <g
     inkscape:groupmode="layer"
     id="layer3"
     inkscape:label="Repeat All Black"
     style="display:inline">
    <path
       style="font-size:medium;font-style:normal;font-variant:normal;font-weight:normal;font-stretch:normal;text-indent:0;text-align:start;text-decoration:none;line-height:normal;letter-spacing:normal;word-spacing:normal;text-transform:none;direction:ltr;block-progression:tb;writing-mode:lr-tb;text-anchor:start;baseline-shift:baseline;color:#000000;fill:#21496b;fill-opacity:1;stroke:none;stroke-width:5;marker:none;visibility:visible;display:inline;overflow:visible;enable-background:accumulate;font-family:Sans;-inkscape-font-specification:Sans"
       d="M 14.883971,4.6539424 C 14.039075,4.6980338 13.239065,5.241818 12.887173,6.0112112 12.53528,6.7806044 12.647129,7.74144 13.166346,8.4094284 l 2.765668,3.6972616 -4.628855,0 c -3.8304886,0 -6.9869507,3.156462 -6.9869507,6.986951 l 0,7.452747 c 0,3.830489 3.1564621,6.986951 6.9869507,6.986951 l 16.768682,0 c 3.830489,0 6.986951,-3.156462 6.986951,-6.986951 l 0,-7.452747 c 0,-3.830489 -3.156462,-6.986951 -6.986951,-6.986951 l -2.71907,-0.01706 0.727808,0.960705 1.048042,1.39739 -1.048042,1.397391 -0.669583,0.902481 2.660845,0.01706 c 1.330512,0.0086 2.328984,0.998445 2.328984,2.328984 l 0,7.452747 c 0,1.330539 -0.998445,2.328984 -2.328984,2.328984 l -16.768682,0 c -1.330539,0 -2.3289835,-0.998445 -2.3289835,-2.328984 l 0,-7.452747 c 0,-1.330539 0.9984445,-2.328984 2.3289835,-2.328984 l 4.68708,0 -2.823893,3.755486 c -0.75218,0.973905 -0.538549,2.54878 0.445895,3.287113 0.984444,0.738332 2.556141,0.502454 3.280479,-0.492332 l 5.58956,-7.452748 1.048043,-1.39739 -1.048043,-1.39739 -5.58956,-7.4527479 C 16.439103,4.987681 15.656774,4.6135236 14.883971,4.6539424 z"
       id="rect3148-1"
       inkscape:connector-curvature="0"
       sodipodi:nodetypes="csccsssssssscccccssssssssccscccccc" />
  </g>
  <g
     inkscape:groupmode="layer"
     id="layer4"
     inkscape:label="Repeat All white"
     style="display:none">
    <path
       style="font-size:medium;font-style:normal;font-variant:normal;font-weight:normal;font-stretch:normal;text-indent:0;text-align:start;text-decoration:none;line-height:normal;letter-spacing:normal;word-spacing:normal;text-transform:none;direction:ltr;block-progression:tb;writing-mode:lr-tb;text-anchor:start;baseline-shift:baseline;color:#000000;fill:#ffffff;fill-opacity:1;stroke:none;stroke-width:5;marker:none;visibility:visible;display:inline;overflow:visible;enable-background:accumulate;font-family:Sans;-inkscape-font-specification:Sans"
       d="M 14.883971,4.6539424 C 14.039075,4.6980338 13.239065,5.241818 12.887173,6.0112112 12.53528,6.7806044 12.647129,7.74144 13.166346,8.4094284 l 2.765668,3.6972616 -4.628855,0 c -3.8304886,0 -6.9869507,3.156462 -6.9869507,6.986951 l 0,7.452747 c 0,3.830489 3.1564621,6.986951 6.9869507,6.986951 l 16.768682,0 c 3.830489,0 6.986951,-3.156462 6.986951,-6.986951 l 0,-7.452747 c 0,-3.830489 -3.156462,-6.986951 -6.986951,-6.986951 l -2.71907,-0.01706 0.727808,0.960705 1.048042,1.39739 -1.048042,1.397391 -0.669583,0.902481 2.660845,0.01706 c 1.330512,0.0086 2.328984,0.998445 2.328984,2.328984 l 0,7.452747 c 0,1.330539 -0.998445,2.328984 -2.328984,2.328984 l -16.768682,0 c -1.330539,0 -2.3289835,-0.998445 -2.3289835,-2.328984 l 0,-7.452747 c 0,-1.330539 0.9984445,-2.328984 2.3289835,-2.328984 l 4.68708,0 -2.823893,3.755486 c -0.75218,0.973905 -0.538549,2.54878 0.445895,3.287113 0.984444,0.738332 2.556141,0.502454 3.280479,-0.492332 l 5.58956,-7.452748 1.048043,-1.39739 -1.048043,-1.39739 -5.58956,-7.4527479 C 16.439103,4.987681 15.656774,4.6135236 14.883971,4.6539424 z"
       id="rect3148-2"
       inkscape:connector-curvature="0"
       sodipodi:nodetypes="csccsssssssscccccssssssssccscccccc" />
  </g>
  <g
     inkscape:groupmode="layer"
     id="layer5"
     inkscape:label="Repeat one black"
     style="display:none">
    <path
       style="font-size:medium;font-style:normal;font-variant:normal;font-weight:normal;font-stretch:normal;text-indent:0;text-align:start;text-decoration:none;line-height:normal;letter-spacing:normal;word-spacing:normal;text-transform:none;direction:ltr;block-progression:tb;writing-mode:lr-tb;text-anchor:start;baseline-shift:baseline;color:#000000;fill:#21496b;fill-opacity:1;stroke:none;stroke-width:5;marker:none;visibility:visible;display:inline;overflow:visible;enable-background:accumulate;font-family:Sans;-inkscape-font-specification:Sans"
       d="m 14.886557,4.5503904 c -0.856636,0.044704 -1.679877,0.6072059 -2.036659,1.3872893 -0.356782,0.7800836 -0.231263,1.7431075 0.295168,2.4203773 l 2.804096,3.748633 -4.693171,0 c -3.8837112,0 -7.0840308,3.20032 -7.0840308,7.084031 l 0,7.5563 c 0,3.883711 3.2003196,7.08403 7.0840308,7.08403 l 11.924785,0 c 1.460139,2.00048 3.827378,3.305882 6.493695,3.305882 4.434057,0 8.028569,-3.594512 8.028569,-8.028569 0,-2.217028 -0.908459,-4.21434 -2.361344,-5.667225 l 0,-4.250418 c 0,-3.883711 -3.200319,-7.084031 -7.084031,-7.084031 l -2.745062,-0.02952 0.73792,0.974054 1.062605,1.416807 -1.062605,1.416806 -0.678886,0.91502 2.686028,0.02952 c 1.348999,0.0087 2.361344,1.012318 2.361344,2.361344 l 0,1.977625 c -0.318476,-0.03841 -0.615703,-0.08855 -0.944538,-0.08855 -4.434055,0 -8.028568,3.594513 -8.028568,8.028568 l -10.389912,0 c -1.3490261,0 -2.3613435,-1.012317 -2.3613435,-2.361343 l 0,-7.5563 c 0,-1.349026 1.0123174,-2.361344 2.3613435,-2.361344 l 4.752204,0 -2.863129,3.807667 c -0.762631,0.987436 -0.55537,2.586807 0.442752,3.335398 0.998122,0.748591 2.600995,0.506823 3.335398,-0.501786 L 22.590441,15.914357 23.653045,14.49755 22.590441,13.080744 16.923216,5.5244446 C 16.463296,4.8887661 15.670097,4.50941 14.886557,4.5503904 z M 30.88466,22.496602 a 1.4169479,1.4169479 0 0 1 0.147584,0 1.4169479,1.4169479 0 0 1 1.47584,1.416806 l 0,10.389912 a 1.4169479,1.4169479 0 1 1 -2.833613,0 l 0,-8.117119 -1.74149,0.885504 a 1.4190336,1.4190336 0 1 1 -1.269223,-2.538444 l 3.77815,-1.889075 a 1.4169479,1.4169479 0 0 1 0.442752,-0.147584 z"
       id="rect3148-1-6"
       inkscape:connector-curvature="0" />
  </g>
  <g
     inkscape:groupmode="layer"
     id="layer6"
     inkscape:label="Repeat one white"
     style="display:none">
    <path
       inkscape:connector-curvature="0"
       style="font-size:medium;font-style:normal;font-variant:normal;font-weight:normal;font-stretch:normal;text-indent:0;text-align:start;text-decoration:none;line-height:normal;letter-spacing:normal;word-spacing:normal;text-transform:none;direction:ltr;block-progression:tb;writing-mode:lr-tb;text-anchor:start;baseline-shift:baseline;color:#000000;fill:#ffffff;fill-opacity:1;stroke:none;stroke-width:5;marker:none;visibility:visible;display:inline;overflow:visible;enable-background:accumulate;font-family:Sans;-inkscape-font-specification:Sans"
       d="m 14.886557,4.5503903 c -0.856636,0.044704 -1.679877,0.6072059 -2.036659,1.3872894 -0.356782,0.7800835 -0.231263,1.7431074 0.295168,2.4203772 l 2.804096,3.7486331 -4.693171,0 c -3.8837112,0 -7.0840308,3.20032 -7.0840308,7.084031 l 0,7.5563 c 0,3.883711 3.2003196,7.08403 7.0840308,7.08403 l 11.924785,0 c 1.460139,2.00048 3.827378,3.305882 6.493695,3.305882 4.434057,0 8.028569,-3.594512 8.028569,-8.028569 0,-2.217028 -0.908459,-4.21434 -2.361344,-5.667225 l 0,-4.250418 c 0,-3.883711 -3.200319,-7.084031 -7.084031,-7.084031 l -2.745062,-0.02952 0.73792,0.974054 1.062605,1.416807 -1.062605,1.416806 -0.678886,0.91502 2.686028,0.02952 c 1.348999,0.0087 2.361344,1.012318 2.361344,2.361344 l 0,1.977625 c -0.318476,-0.03841 -0.615703,-0.08855 -0.944538,-0.08855 -4.434055,0 -8.028568,3.594513 -8.028568,8.028568 l -10.389912,0 c -1.3490261,0 -2.3613435,-1.012317 -2.3613435,-2.361343 l 0,-7.5563 c 0,-1.349026 1.0123174,-2.361344 2.3613435,-2.361344 l 4.752204,0 -2.863129,3.807667 c -0.762631,0.987436 -0.55537,2.586807 0.442752,3.335398 0.998122,0.748591 2.600995,0.506823 3.335398,-0.501786 L 22.590441,15.914357 23.653045,14.49755 22.590441,13.080744 16.923216,5.5244445 C 16.463296,4.888766 15.670097,4.5094099 14.886557,4.5503903 z M 30.88466,22.496602 a 1.4169479,1.4169479 0 0 1 0.147584,0 1.4169479,1.4169479 0 0 1 1.47584,1.416806 l 0,10.389912 a 1.4169479,1.4169479 0 1 1 -2.833613,0 l 0,-8.117119 -1.74149,0.885504 a 1.4190336,1.4190336 0 1 1 -1.269223,-2.538444 l 3.77815,-1.889075 a 1.4169479,1.4169479 0 0 1 0.442752,-0.147584 z"
       id="rect3148-1-6-4" />
  </g>
</svg>
