<?xml version="1.0" encoding="UTF-8" standalone="no"?>
<!-- Created with Inkscape (http://www.inkscape.org/) -->

<svg
   xmlns:dc="http://purl.org/dc/elements/1.1/"
   xmlns:cc="http://creativecommons.org/ns#"
   xmlns:rdf="http://www.w3.org/1999/02/22-rdf-syntax-ns#"
   xmlns:svg="http://www.w3.org/2000/svg"
   xmlns="http://www.w3.org/2000/svg"
   xmlns:sodipodi="http://sodipodi.sourceforge.net/DTD/sodipodi-0.dtd"
   xmlns:inkscape="http://www.inkscape.org/namespaces/inkscape"
   width="40"
   height="40"
   id="svg2"
   version="1.1"
   inkscape:version="0.48.3.1 r9886"
   inkscape:export-filename="/home/micha/Develop/xbmcremote/qml/xbmcremote/harmattan/icons/shuffle-on-white.png"
   inkscape:export-xdpi="90"
   inkscape:export-ydpi="90"
   sodipodi:docname="shuffle.svg">
  <defs
     id="defs4" />
  <sodipodi:namedview
     id="base"
     pagecolor="#ffffff"
     bordercolor="#666666"
     borderopacity="1.0"
     inkscape:pageopacity="0.0"
     inkscape:pageshadow="2"
     inkscape:zoom="17.225"
     inkscape:cx="20.870827"
     inkscape:cy="20"
     inkscape:document-units="px"
     inkscape:current-layer="layer1"
     showgrid="true"
     fit-margin-top="0"
     fit-margin-left="0"
     fit-margin-right="0"
     fit-margin-bottom="0"
     inkscape:window-width="1440"
     inkscape:window-height="857"
     inkscape:window-x="-2"
     inkscape:window-y="20"
     inkscape:window-maximized="1">
    <inkscape:grid
       type="xygrid"
       id="grid2985"
       empspacing="5"
       visible="true"
       enabled="true"
       snapvisiblegridlinesonly="true"
       originx="-410.32498px"
       originy="-289.10669px" />
  </sodipodi:namedview>
  <metadata
     id="metadata7">
    <rdf:RDF>
      <cc:Work
         rdf:about="">
        <dc:format>image/svg+xml</dc:format>
        <dc:type
           rdf:resource="http://purl.org/dc/dcmitype/StillImage" />
        <dc:title></dc:title>
      </cc:Work>
    </rdf:RDF>
  </metadata>
  <g
     inkscape:label="Shuffle Off black"
     inkscape:groupmode="layer"
     id="layer1"
     transform="translate(-410.32498,-723.25549)"
     style="display:none">
    <path
       id="path4469"
       style="font-size:medium;font-style:normal;font-variant:normal;font-weight:normal;font-stretch:normal;text-indent:0;text-align:start;text-decoration:none;line-height:normal;letter-spacing:normal;word-spacing:normal;text-transform:none;direction:ltr;block-progression:tb;writing-mode:lr-tb;text-anchor:start;baseline-shift:baseline;color:#000000;fill:#ffffff;fill-opacity:1;stroke:none;stroke-width:5;marker:none;visibility:visible;display:inline;overflow:visible;enable-background:accumulate;font-family:Sans;-inkscape-font-specification:Sans"
       d="m 436.71875,743.84375 a 2.50025,2.50025 0 0 0 -1.5,4.28125 l 4.21875,4.25 -4.21875,4.21875 a 2.5080437,2.5080437 0 1 0 3.5625,3.53125 l 6,-6 1.75,-1.75 -1.75,-1.78125 -6,-6 a 2.50025,2.50025 0 0 0 -2.0625,-0.75 z m 0,-18 a 2.50025,2.50025 0 0 0 -1.5,4.28125 l 4.21875,4.25 -4.21875,4.21875 a 2.5080437,2.5080437 0 1 0 3.5625,3.53125 l 6,-6 1.75,-1.75 -1.75,-1.78125 -6,-6 a 2.50025,2.50025 0 0 0 -2.0625,-0.75 z m 3.29373,6.03674 c -5.16058,0 -8.64556,0.78105 -10.96875,2.4375 0.20544,0.20811 0.40921,0.42716 0.59375,0.65625 1.00106,1.2427 1.51578,2.569 1.78125,3.84375 0.74502,-0.84697 2.90625,-1.9375 8.59375,-1.9375 a 2.50025,2.50025 0 1 0 0,-5 z m -15.0625,16.125 c -0.66648,0.79578 -2.58139,1.875 -7.9375,1.875 a 2.50025,2.50025 0 1 0 0,5 c 4.89514,0 8.25908,-0.76286 10.46875,-2.40625 -0.20527,-0.19367 -0.40687,-0.41255 -0.59375,-0.625 -1.07541,-1.22257 -1.63218,-2.54469 -1.9375,-3.84375 z m -7.9375,-16.15625 a 2.50025,2.50025 0 1 0 0,5 c 5.42391,0 7.32565,1.10792 7.96875,1.90625 0.6431,0.79833 0.71939,2.25813 0.65625,4.53125 -0.0631,2.27312 -0.22373,5.37822 2,7.90625 2.22373,2.52803 6.0625,3.65625 12.375,3.65625 a 2.50025,2.50025 0 1 0 0,-5 c -5.6875,0 -7.87998,-1.09053 -8.625,-1.9375 -0.74502,-0.84697 -0.81186,-2.24187 -0.75,-4.46875 0.0619,-2.22688 0.2944,-5.26708 -1.78125,-7.84375 -2.07565,-2.57667 -5.76766,-3.75 -11.84375,-3.75 z"
       inkscape:connector-curvature="0" />
  </g>
  <g
     inkscape:groupmode="layer"
     id="layer2"
     inkscape:label="Shuffle Off white"
     style="display:none">
    <path
       inkscape:connector-curvature="0"
       id="path4469-5"
       style="font-size:medium;font-style:normal;font-variant:normal;font-weight:normal;font-stretch:normal;text-indent:0;text-align:start;text-decoration:none;line-height:normal;letter-spacing:normal;word-spacing:normal;text-transform:none;direction:ltr;block-progression:tb;writing-mode:lr-tb;text-anchor:start;baseline-shift:baseline;color:#000000;fill:#000000;fill-opacity:1;stroke:none;stroke-width:5;marker:none;visibility:visible;display:inline;overflow:visible;enable-background:accumulate;font-family:Sans;-inkscape-font-specification:Sans"
       d="m 26.39378,20.58826 a 2.50025,2.50025 0 0 0 -1.5,4.28125 l 4.21875,4.25 -4.21875,4.21875 a 2.5080437,2.5080437 0 1 0 3.5625,3.53125 l 6,-6 1.75,-1.75 -1.75,-1.78125 -6,-6 a 2.50025,2.50025 0 0 0 -2.0625,-0.75 z m 0,-17.9999997 a 2.50025,2.50025 0 0 0 -1.5,4.28125 l 4.21875,4.2499997 -4.21875,4.21875 a 2.5080437,2.5080437 0 1 0 3.5625,3.53125 l 6,-6 1.75,-1.75 -1.75,-1.7812497 -6,-6 a 2.50025,2.50025 0 0 0 -2.0625,-0.75 z m 3.29373,6.03674 c -5.16058,0 -8.64556,0.78105 -10.96875,2.4374997 0.20544,0.20811 0.40921,0.42716 0.59375,0.65625 1.00106,1.2427 1.51578,2.569 1.78125,3.84375 0.74502,-0.84697 2.90625,-1.9375 8.59375,-1.9375 a 2.50025,2.50025 0 1 0 0,-4.9999997 z M 14.62501,24.75 c -0.666479,0.79578 -2.581389,1.875 -7.9374994,1.875 a 2.50025,2.50025 0 1 0 0,5 c 4.8951404,0 8.2590794,-0.76286 10.4687494,-2.40625 -0.20527,-0.19367 -0.40687,-0.41255 -0.59375,-0.625 C 15.4871,27.37118 14.93033,26.04906 14.62501,24.75 z M 6.6875106,8.5937503 a 2.50025,2.50025 0 1 0 0,4.9999997 c 5.4239104,0 7.3256504,1.10792 7.9687494,1.90625 0.6431,0.79833 0.71939,2.25813 0.65625,4.53125 -0.0631,2.27312 -0.22373,5.37822 2,7.90625 2.22373,2.52803 6.0625,3.65625 12.375,3.65625 a 2.50025,2.50025 0 1 0 0,-5 c -5.6875,0 -7.87998,-1.09053 -8.625,-1.9375 -0.74502,-0.84697 -0.81186,-2.24187 -0.75,-4.46875 0.0619,-2.22688 0.2944,-5.26708 -1.78125,-7.84375 C 16.45561,9.7670803 12.763601,8.5937503 6.6875106,8.5937503 z" />
  </g>
  <g
     inkscape:groupmode="layer"
     id="layer3"
     inkscape:label="Shuffle On Black"
     style="display:none">
    <path
       inkscape:connector-curvature="0"
       id="path4469-3"
       style="font-size:medium;font-style:normal;font-variant:normal;font-weight:normal;font-stretch:normal;text-indent:0;text-align:start;text-decoration:none;line-height:normal;letter-spacing:normal;word-spacing:normal;text-transform:none;direction:ltr;block-progression:tb;writing-mode:lr-tb;text-anchor:start;baseline-shift:baseline;color:#000000;fill:#21496b;fill-opacity:1;stroke:none;stroke-width:5;marker:none;visibility:visible;display:inline;overflow:visible;enable-background:accumulate;font-family:Sans;-inkscape-font-specification:Sans"
       d="m 26.39378,20.58826 a 2.50025,2.50025 0 0 0 -1.5,4.28125 l 4.21875,4.25 -4.21875,4.21875 a 2.5080437,2.5080437 0 1 0 3.5625,3.53125 l 6,-6 1.75,-1.75 -1.75,-1.78125 -6,-6 a 2.50025,2.50025 0 0 0 -2.0625,-0.75 z m 0,-17.9999997 a 2.50025,2.50025 0 0 0 -1.5,4.28125 l 4.21875,4.2499997 -4.21875,4.21875 a 2.5080437,2.5080437 0 1 0 3.5625,3.53125 l 6,-6 1.75,-1.75 -1.75,-1.7812497 -6,-6 a 2.50025,2.50025 0 0 0 -2.0625,-0.75 z m 3.29373,6.03674 c -5.16058,0 -8.64556,0.78105 -10.96875,2.4374997 0.20544,0.20811 0.40921,0.42716 0.59375,0.65625 1.00106,1.2427 1.51578,2.569 1.78125,3.84375 0.74502,-0.84697 2.90625,-1.9375 8.59375,-1.9375 a 2.50025,2.50025 0 1 0 0,-4.9999997 z M 14.62501,24.75 c -0.666479,0.79578 -2.581389,1.875 -7.9374994,1.875 a 2.50025,2.50025 0 1 0 0,5 c 4.8951404,0 8.2590794,-0.76286 10.4687494,-2.40625 -0.20527,-0.19367 -0.40687,-0.41255 -0.59375,-0.625 C 15.4871,27.37118 14.93033,26.04906 14.62501,24.75 z M 6.6875106,8.5937503 a 2.50025,2.50025 0 1 0 0,4.9999997 c 5.4239104,0 7.3256504,1.10792 7.9687494,1.90625 0.6431,0.79833 0.71939,2.25813 0.65625,4.53125 -0.0631,2.27312 -0.22373,5.37822 2,7.90625 2.22373,2.52803 6.0625,3.65625 12.375,3.65625 a 2.50025,2.50025 0 1 0 0,-5 c -5.6875,0 -7.87998,-1.09053 -8.625,-1.9375 -0.74502,-0.84697 -0.81186,-2.24187 -0.75,-4.46875 0.0619,-2.22688 0.2944,-5.26708 -1.78125,-7.84375 C 16.45561,9.7670803 12.763601,8.5937503 6.6875106,8.5937503 z" />
  </g>
  <g
     inkscape:groupmode="layer"
     id="layer4"
     inkscape:label="Shuffle On white"
     style="display:inline">
    <path
       inkscape:connector-curvature="0"
       id="path4469-32"
       style="font-size:medium;font-style:normal;font-variant:normal;font-weight:normal;font-stretch:normal;text-indent:0;text-align:start;text-decoration:none;line-height:normal;letter-spacing:normal;word-spacing:normal;text-transform:none;direction:ltr;block-progression:tb;writing-mode:lr-tb;text-anchor:start;baseline-shift:baseline;color:#000000;fill:#ffffff;fill-opacity:1;stroke:none;stroke-width:5;marker:none;visibility:visible;display:inline;overflow:visible;enable-background:accumulate;font-family:Sans;-inkscape-font-specification:Sans"
       d="m 26.39378,20.58826 a 2.50025,2.50025 0 0 0 -1.5,4.28125 l 4.21875,4.25 -4.21875,4.21875 a 2.5080437,2.5080437 0 1 0 3.5625,3.53125 l 6,-6 1.75,-1.75 -1.75,-1.78125 -6,-6 a 2.50025,2.50025 0 0 0 -2.0625,-0.75 z m 0,-17.9999997 a 2.50025,2.50025 0 0 0 -1.5,4.28125 l 4.21875,4.2499997 -4.21875,4.21875 a 2.5080437,2.5080437 0 1 0 3.5625,3.53125 l 6,-6 1.75,-1.75 -1.75,-1.7812497 -6,-6 a 2.50025,2.50025 0 0 0 -2.0625,-0.75 z m 3.29373,6.03674 c -5.16058,0 -8.64556,0.78105 -10.96875,2.4374997 0.20544,0.20811 0.40921,0.42716 0.59375,0.65625 1.00106,1.2427 1.51578,2.569 1.78125,3.84375 0.74502,-0.84697 2.90625,-1.9375 8.59375,-1.9375 a 2.50025,2.50025 0 1 0 0,-4.9999997 z M 14.62501,24.75 c -0.666479,0.79578 -2.581389,1.875 -7.9374994,1.875 a 2.50025,2.50025 0 1 0 0,5 c 4.8951404,0 8.2590794,-0.76286 10.4687494,-2.40625 -0.20527,-0.19367 -0.40687,-0.41255 -0.59375,-0.625 C 15.4871,27.37118 14.93033,26.04906 14.62501,24.75 z M 6.6875106,8.5937503 a 2.50025,2.50025 0 1 0 0,4.9999997 c 5.4239104,0 7.3256504,1.10792 7.9687494,1.90625 0.6431,0.79833 0.71939,2.25813 0.65625,4.53125 -0.0631,2.27312 -0.22373,5.37822 2,7.90625 2.22373,2.52803 6.0625,3.65625 12.375,3.65625 a 2.50025,2.50025 0 1 0 0,-5 c -5.6875,0 -7.87998,-1.09053 -8.625,-1.9375 -0.74502,-0.84697 -0.81186,-2.24187 -0.75,-4.46875 0.0619,-2.22688 0.2944,-5.26708 -1.78125,-7.84375 C 16.45561,9.7670803 12.763601,8.5937503 6.6875106,8.5937503 z" />
  </g>
</svg>
