<?xml version="1.0" encoding="UTF-8" standalone="no"?>
<!-- Created with Inkscape (http://www.inkscape.org/) -->

<svg
   xmlns:dc="http://purl.org/dc/elements/1.1/"
   xmlns:cc="http://creativecommons.org/ns#"
   xmlns:rdf="http://www.w3.org/1999/02/22-rdf-syntax-ns#"
   xmlns:svg="http://www.w3.org/2000/svg"
   xmlns="http://www.w3.org/2000/svg"
   xmlns:xlink="http://www.w3.org/1999/xlink"
   xmlns:sodipodi="http://sodipodi.sourceforge.net/DTD/sodipodi-0.dtd"
   xmlns:inkscape="http://www.inkscape.org/namespaces/inkscape"
   width="40"
   height="40"
   id="svg2"
   version="1.1"
   inkscape:version="0.48.3.1 r9886"
   inkscape:export-filename="/home/micha/Develop/xbmcremote/qml/xbmcremote/harmattan/icons/shuffle-on-white.png"
   inkscape:export-xdpi="90"
   inkscape:export-ydpi="90"
   sodipodi:docname="shuffle.svg">
  <defs
     id="defs4">
    <linearGradient
       id="linearGradient5600">
      <stop
         style="stop-color:#bfbfbf;stop-opacity:1;"
         offset="0"
         id="stop5602" />
      <stop
         style="stop-color:#f7f7f7;stop-opacity:1;"
         offset="1"
         id="stop5604" />
    </linearGradient>
    <linearGradient
       inkscape:collect="always"
       xlink:href="#linearGradient5600"
       id="linearGradient5606"
       x1="19.67502"
       y1="2.1066899"
       x2="19.67502"
       y2="38.106689"
       gradientUnits="userSpaceOnUse" />
    <linearGradient
       inkscape:collect="always"
       xlink:href="#linearGradient5600-6"
       id="linearGradient5606-5"
       x1="19.67502"
       y1="2.1066899"
       x2="19.67502"
       y2="38.106689"
       gradientUnits="userSpaceOnUse" />
    <linearGradient
       id="linearGradient5600-6">
      <stop
         style="stop-color:#bfbfbf;stop-opacity:1;"
         offset="0"
         id="stop5602-5" />
      <stop
         style="stop-color:#f7f7f7;stop-opacity:1;"
         offset="1"
         id="stop5604-7" />
    </linearGradient>
    <linearGradient
       gradientTransform="matrix(0.92855053,0,0,0.92855053,411.76676,724.69113)"
       y2="38.106689"
       x2="19.67502"
       y1="2.1066899"
       x1="19.67502"
       gradientUnits="userSpaceOnUse"
       id="linearGradient6131"
       xlink:href="#linearGradient5600-6"
       inkscape:collect="always" />
  </defs>
  <sodipodi:namedview
     id="base"
     pagecolor="#ffffff"
     bordercolor="#666666"
     borderopacity="1.0"
     inkscape:pageopacity="0.0"
     inkscape:pageshadow="2"
     inkscape:zoom="17.225"
     inkscape:cx="10.449927"
     inkscape:cy="17.677794"
     inkscape:document-units="px"
     inkscape:current-layer="layer1"
     showgrid="true"
     fit-margin-top="0"
     fit-margin-left="0"
     fit-margin-right="0"
     fit-margin-bottom="0"
     inkscape:window-width="1440"
     inkscape:window-height="857"
     inkscape:window-x="-2"
     inkscape:window-y="20"
     inkscape:window-maximized="1">
    <inkscape:grid
       type="xygrid"
       id="grid2985"
       empspacing="5"
       visible="true"
       enabled="true"
       snapvisiblegridlinesonly="true"
       originx="-410.32498px"
       originy="-289.10669px" />
  </sodipodi:namedview>
  <metadata
     id="metadata7">
    <rdf:RDF>
      <cc:Work
         rdf:about="">
        <dc:format>image/svg+xml</dc:format>
        <dc:type
           rdf:resource="http://purl.org/dc/dcmitype/StillImage" />
        <dc:title></dc:title>
      </cc:Work>
    </rdf:RDF>
  </metadata>
  <g
     inkscape:label="Shuffle Off black"
     inkscape:groupmode="layer"
     id="layer1"
     transform="translate(-410.32498,-723.25549)"
     style="display:inline">
    <path
       inkscape:connector-curvature="0"
       id="path4469-32-1"
       style="font-size:medium;font-style:normal;font-variant:normal;font-weight:normal;font-stretch:normal;text-indent:0;text-align:start;text-decoration:none;line-height:normal;letter-spacing:normal;word-spacing:normal;text-transform:none;direction:ltr;block-progression:tb;writing-mode:lr-tb;text-anchor:start;baseline-shift:baseline;color:#000000;fill:url(#linearGradient6131);fill-opacity:1;stroke:none;stroke-width:5;marker:none;visibility:visible;display:inline;overflow:visible;enable-background:accumulate;font-family:Sans;-inkscape-font-specification:Sans"
       d="m 436.27471,743.80837 a 2.3216085,2.3216085 0 0 0 -1.39282,3.97536 l 3.91732,3.94634 -3.91732,3.91732 a 2.3288469,2.3288469 0 1 0 3.30796,3.27895 l 5.5713,-5.57131 1.62497,-1.62496 -1.62497,-1.65398 -5.5713,-5.5713 a 2.3216085,2.3216085 0 0 0 -1.91514,-0.69642 z m 0,-16.71391 a 2.3216085,2.3216085 0 0 0 -1.39282,3.97536 l 3.91732,3.94634 -3.91732,3.91732 a 2.3288469,2.3288469 0 1 0 3.30796,3.27895 l 5.5713,-5.57131 1.62497,-1.62496 -1.62497,-1.65398 -5.5713,-5.5713 a 2.3216085,2.3216085 0 0 0 -1.91514,-0.69642 z m 3.0584,5.60542 c -4.79186,0 -8.02784,0.72525 -10.18504,2.26334 0.19076,0.19324 0.37997,0.39664 0.55133,0.60937 0.92953,1.1539 1.40748,2.38544 1.65398,3.56911 0.69179,-0.78645 2.6986,-1.79907 7.97973,-1.79907 a 2.3216085,2.3216085 0 1 0 0,-4.64275 z m -13.98629,14.97288 c -0.61886,0.73892 -2.39695,1.74103 -7.37037,1.74103 a 2.3216085,2.3216085 0 1 0 0,4.64275 c 4.54538,0 7.66897,-0.70835 9.72076,-2.23432 -0.1906,-0.17983 -0.3778,-0.38307 -0.55133,-0.58034 -0.99857,-1.13522 -1.51556,-2.36288 -1.79906,-3.56912 z m -7.37037,-15.0019 a 2.3216085,2.3216085 0 1 0 0,4.64276 c 5.03637,0 6.80223,1.02876 7.39938,1.77005 0.59715,0.74129 0.66799,2.09678 0.60936,4.20749 -0.0586,2.11071 -0.20774,4.99395 1.85711,7.34135 2.06484,2.34741 5.62933,3.39502 11.49081,3.39502 a 2.3216085,2.3216085 0 1 0 0,-4.64276 c -5.28113,0 -7.31696,-1.01261 -8.00875,-1.79906 -0.69179,-0.78646 -0.75385,-2.08169 -0.69641,-4.14946 0.0575,-2.06777 0.27336,-4.89075 -1.65398,-7.28332 -1.92735,-2.39257 -5.35557,-3.48207 -10.99752,-3.48207 z" />
  </g>
  <g
     inkscape:groupmode="layer"
     id="layer2"
     inkscape:label="Shuffle Off white"
     style="display:none">
    <path
       inkscape:connector-curvature="0"
       id="path4469-5"
       style="font-size:medium;font-style:normal;font-variant:normal;font-weight:normal;font-stretch:normal;text-indent:0;text-align:start;text-decoration:none;line-height:normal;letter-spacing:normal;word-spacing:normal;text-transform:none;direction:ltr;block-progression:tb;writing-mode:lr-tb;text-anchor:start;baseline-shift:baseline;color:#000000;fill:#000000;fill-opacity:1;stroke:none;stroke-width:5;marker:none;visibility:visible;display:inline;overflow:visible;enable-background:accumulate;font-family:Sans;-inkscape-font-specification:Sans"
       d="m 25.949744,20.552883 a 2.3216085,2.3216085 0 0 0 -1.392826,3.975357 l 3.917322,3.94634 -3.917322,3.917323 a 2.3288454,2.3288454 0 1 0 3.307961,3.278944 l 5.571303,-5.571303 1.624964,-1.624964 -1.624964,-1.65398 -5.571303,-5.571304 a 2.3216085,2.3216085 0 0 0 -1.915135,-0.696413 z m 0,-16.7139092 a 2.3216085,2.3216085 0 0 0 -1.392826,3.975357 l 3.917322,3.9463392 -3.917322,3.917323 a 2.3288454,2.3288454 0 1 0 3.307961,3.278944 L 33.436182,13.385634 35.061146,11.76067 33.436182,10.10669 27.864879,4.5353867 A 2.3216085,2.3216085 0 0 0 25.949744,3.8389738 z m 3.058394,5.6054182 c -4.791859,0 -8.027839,0.725244 -10.185038,2.263342 0.190761,0.19324 0.379972,0.396639 0.551326,0.609361 0.929535,1.15391 1.407479,2.385446 1.653981,3.569116 0.691789,-0.786454 2.6986,-1.799066 7.979731,-1.799066 a 2.3216085,2.3216085 0 1 0 0,-4.642753 z M 15.021846,24.417269 c -0.61886,0.738922 -2.39695,1.741033 -7.3703697,1.741033 a 2.3216085,2.3216085 0 1 0 0,4.642752 c 4.5453857,0 7.6689727,-0.708354 9.7207627,-2.234324 C 17.181636,28.386897 16.99444,28.183656 16.820912,27.986386 15.82234,26.851168 15.305351,25.623512 15.021846,24.417269 z M 7.6514763,9.4153748 a 2.3216085,2.3216085 0 1 0 0,4.6427522 c 5.0363747,0 6.8022367,1.02876 7.3993867,1.77005 0.597151,0.74129 0.66799,2.096788 0.609361,4.207494 -0.05859,2.110707 -0.207744,4.99395 1.857101,7.341353 2.064846,2.347404 5.629338,3.395013 11.490813,3.395013 a 2.3216085,2.3216085 0 1 0 0,-4.642753 c -5.281131,0 -7.316959,-1.012612 -8.008748,-1.799066 -0.691789,-0.786455 -0.753853,-2.08169 -0.696413,-4.14946 0.05748,-2.067771 0.273365,-4.890751 -1.653981,-7.283319 C 16.72165,10.504871 13.293433,9.4153748 7.6514763,9.4153748 z" />
  </g>
  <g
     inkscape:groupmode="layer"
     id="layer3"
     inkscape:label="Shuffle On Black"
     style="display:none">
    <path
       inkscape:connector-curvature="0"
       id="path4469-3"
       style="font-size:medium;font-style:normal;font-variant:normal;font-weight:normal;font-stretch:normal;text-indent:0;text-align:start;text-decoration:none;line-height:normal;letter-spacing:normal;word-spacing:normal;text-transform:none;direction:ltr;block-progression:tb;writing-mode:lr-tb;text-anchor:start;baseline-shift:baseline;color:#000000;fill:#21496b;fill-opacity:1;stroke:none;stroke-width:5;marker:none;visibility:visible;display:inline;overflow:visible;enable-background:accumulate;font-family:Sans;-inkscape-font-specification:Sans"
       d="m 25.949744,20.552883 a 2.3216085,2.3216085 0 0 0 -1.392826,3.975357 l 3.917322,3.94634 -3.917322,3.917323 a 2.3288454,2.3288454 0 1 0 3.307961,3.278944 l 5.571303,-5.571303 1.624964,-1.624964 -1.624964,-1.65398 -5.571303,-5.571304 a 2.3216085,2.3216085 0 0 0 -1.915135,-0.696413 z m 0,-16.7139092 a 2.3216085,2.3216085 0 0 0 -1.392826,3.975357 l 3.917322,3.9463392 -3.917322,3.917323 a 2.3288454,2.3288454 0 1 0 3.307961,3.278944 L 33.436182,13.385634 35.061146,11.76067 33.436182,10.10669 27.864879,4.5353867 A 2.3216085,2.3216085 0 0 0 25.949744,3.8389738 z m 3.058394,5.6054182 c -4.791859,0 -8.027839,0.725244 -10.185038,2.263342 0.190761,0.19324 0.379972,0.396639 0.551326,0.609361 0.929535,1.15391 1.407479,2.385446 1.653981,3.569116 0.691789,-0.786454 2.6986,-1.799066 7.979731,-1.799066 a 2.3216085,2.3216085 0 1 0 0,-4.642753 z M 15.021846,24.417269 c -0.61886,0.738922 -2.39695,1.741033 -7.3703697,1.741033 a 2.3216085,2.3216085 0 1 0 0,4.642752 c 4.5453857,0 7.6689727,-0.708354 9.7207627,-2.234324 C 17.181636,28.386897 16.99444,28.183656 16.820912,27.986386 15.82234,26.851168 15.305351,25.623512 15.021846,24.417269 z M 7.6514763,9.4153748 a 2.3216085,2.3216085 0 1 0 0,4.6427522 c 5.0363747,0 6.8022367,1.02876 7.3993867,1.77005 0.597151,0.74129 0.66799,2.096788 0.609361,4.207494 -0.05859,2.110707 -0.207744,4.99395 1.857101,7.341353 2.064846,2.347404 5.629338,3.395013 11.490813,3.395013 a 2.3216085,2.3216085 0 1 0 0,-4.642753 c -5.281131,0 -7.316959,-1.012612 -8.008748,-1.799066 -0.691789,-0.786455 -0.753853,-2.08169 -0.696413,-4.14946 0.05748,-2.067771 0.273365,-4.890751 -1.653981,-7.283319 C 16.72165,10.504871 13.293433,9.4153748 7.6514763,9.4153748 z" />
  </g>
  <g
     inkscape:groupmode="layer"
     id="layer4"
     inkscape:label="Shuffle On white"
     style="display:none">
    <path
       id="path4469"
       style="font-size:medium;font-style:normal;font-variant:normal;font-weight:normal;font-stretch:normal;text-indent:0;text-align:start;text-decoration:none;line-height:normal;letter-spacing:normal;word-spacing:normal;text-transform:none;direction:ltr;block-progression:tb;writing-mode:lr-tb;text-anchor:start;baseline-shift:baseline;color:#000000;fill:#ffffff;fill-opacity:1;stroke:none;stroke-width:5;marker:none;visibility:visible;display:inline;overflow:visible;enable-background:accumulate;font-family:Sans;-inkscape-font-specification:Sans"
       d="m 25.949744,20.552883 a 2.3216085,2.3216085 0 0 0 -1.392826,3.975357 l 3.917322,3.94634 -3.917322,3.917323 a 2.3288454,2.3288454 0 1 0 3.307961,3.278944 l 5.571303,-5.571303 1.624964,-1.624964 -1.624964,-1.65398 -5.571303,-5.571304 a 2.3216085,2.3216085 0 0 0 -1.915135,-0.696413 z m 0,-16.7139092 a 2.3216085,2.3216085 0 0 0 -1.392826,3.975357 l 3.917322,3.9463392 -3.917322,3.917323 a 2.3288454,2.3288454 0 1 0 3.307961,3.278944 L 33.436182,13.385634 35.061146,11.76067 33.436182,10.10669 27.864879,4.5353867 A 2.3216085,2.3216085 0 0 0 25.949744,3.8389738 z m 3.058394,5.6054182 c -4.791859,0 -8.027839,0.725244 -10.185038,2.263342 0.190761,0.19324 0.379972,0.396639 0.551326,0.609361 0.929535,1.15391 1.407479,2.385446 1.653981,3.569116 0.691789,-0.786454 2.6986,-1.799066 7.979731,-1.799066 a 2.3216085,2.3216085 0 1 0 0,-4.642753 z M 15.021846,24.417269 c -0.61886,0.738922 -2.39695,1.741033 -7.3703697,1.741033 a 2.3216085,2.3216085 0 1 0 0,4.642752 c 4.5453857,0 7.6689727,-0.708354 9.7207627,-2.234324 C 17.181636,28.386897 16.99444,28.183656 16.820912,27.986386 15.82234,26.851168 15.305351,25.623512 15.021846,24.417269 z M 7.6514763,9.4153748 a 2.3216085,2.3216085 0 1 0 0,4.6427522 c 5.0363747,0 6.8022367,1.02876 7.3993867,1.77005 0.597151,0.74129 0.66799,2.096788 0.609361,4.207494 -0.05859,2.110707 -0.207744,4.99395 1.857101,7.341353 2.064846,2.347404 5.629338,3.395013 11.490813,3.395013 a 2.3216085,2.3216085 0 1 0 0,-4.642753 c -5.281131,0 -7.316959,-1.012612 -8.008748,-1.799066 -0.691789,-0.786455 -0.753853,-2.08169 -0.696413,-4.14946 0.05748,-2.067771 0.273365,-4.890751 -1.653981,-7.283319 C 16.72165,10.504871 13.293433,9.4153748 7.6514763,9.4153748 z"
       inkscape:connector-curvature="0" />
  </g>
</svg>
