<?xml version="1.0" encoding="UTF-8" standalone="no"?>
<!-- Created with Inkscape (http://www.inkscape.org/) -->

<svg
   xmlns:dc="http://purl.org/dc/elements/1.1/"
   xmlns:cc="http://creativecommons.org/ns#"
   xmlns:rdf="http://www.w3.org/1999/02/22-rdf-syntax-ns#"
   xmlns:svg="http://www.w3.org/2000/svg"
   xmlns="http://www.w3.org/2000/svg"
   xmlns:sodipodi="http://sodipodi.sourceforge.net/DTD/sodipodi-0.dtd"
   xmlns:inkscape="http://www.inkscape.org/namespaces/inkscape"
   width="40"
   height="40"
   id="svg7753"
   version="1.1"
   inkscape:version="0.48.3.1 r9886"
   inkscape:export-filename="/home/micha/Develop/xbmcremote/qml/xbmcremote/symbian/icons/tools-repeat-one.png"
   inkscape:export-xdpi="90"
   inkscape:export-ydpi="90"
   sodipodi:docname="New document 25">
  <defs
     id="defs7755" />
  <sodipodi:namedview
     id="base"
     pagecolor="#ffffff"
     bordercolor="#666666"
     borderopacity="1.0"
     inkscape:pageopacity="0.0"
     inkscape:pageshadow="2"
     inkscape:zoom="15.839192"
     inkscape:cx="21.576575"
     inkscape:cy="24.416132"
     inkscape:document-units="px"
     inkscape:current-layer="layer1"
     showgrid="true"
     inkscape:window-width="1440"
     inkscape:window-height="857"
     inkscape:window-x="-2"
     inkscape:window-y="20"
     inkscape:window-maximized="1">
    <inkscape:grid
       type="xygrid"
       id="grid7761"
       empspacing="5"
       visible="true"
       enabled="true"
       snapvisiblegridlinesonly="true" />
  </sodipodi:namedview>
  <metadata
     id="metadata7758">
    <rdf:RDF>
      <cc:Work
         rdf:about="">
        <dc:format>image/svg+xml</dc:format>
        <dc:type
           rdf:resource="http://purl.org/dc/dcmitype/StillImage" />
        <dc:title></dc:title>
      </cc:Work>
    </rdf:RDF>
  </metadata>
  <g
     inkscape:label="Layer 1"
     inkscape:groupmode="layer"
     id="layer1"
     transform="translate(0,-1012.3622)">
    <g
       transform="translate(2.28125,-4.5312)"
       id="g7716"
       style="fill:#1d76ff;fill-opacity:1">
      <path
         style="font-size:medium;font-style:normal;font-variant:normal;font-weight:normal;font-stretch:normal;text-indent:0;text-align:start;text-decoration:none;line-height:normal;letter-spacing:normal;word-spacing:normal;text-transform:none;direction:ltr;block-progression:tb;writing-mode:lr-tb;text-anchor:start;baseline-shift:baseline;color:#000000;fill:#2781ff;fill-opacity:1;stroke:none;stroke-width:5;marker:none;visibility:visible;display:inline;overflow:visible;enable-background:accumulate;font-family:Sans;-inkscape-font-specification:Sans"
         d="m 11,1019.3622 a 2.50025,2.50025 0 0 0 -1.5,4.2812 l 3.21875,3.25 -3.21875,3.2188 a 2.5080261,2.5080261 0 1 0 3.5625,3.5312 l 5,-5 1.75,-1.75 -1.75,-1.7812 -5,-5 A 2.50025,2.50025 0 0 0 11,1019.3622 z"
         id="path8306"
         inkscape:connector-curvature="0" />
    </g>
    <g
       style="fill:#1d76ff;fill-opacity:1"
       id="g8330"
       transform="translate(4.28125,-4.5312)" />
    <text
       xml:space="preserve"
       style="font-size:50px;font-style:normal;font-weight:normal;line-height:125%;letter-spacing:0px;word-spacing:0px;fill:#2781ff;fill-opacity:1;stroke:none;font-family:Sans"
       x="22"
       y="1038.3622"
       id="text8339"
       sodipodi:linespacing="125%"
       inkscape:transform-center-y="-4.1105881"><tspan
         sodipodi:role="line"
         id="tspan8341"
         x="22"
         y="1038.3622"
         style="font-size:16px;-inkscape-font-specification:Arial Bold;font-family:Arial;font-weight:bold;font-style:normal;font-stretch:normal;font-variant:normal;fill:#2781ff;fill-opacity:1">1</tspan></text>
    <path
       style="font-size:medium;font-style:normal;font-variant:normal;font-weight:normal;font-stretch:normal;text-indent:0;text-align:start;text-decoration:none;line-height:normal;letter-spacing:normal;word-spacing:normal;text-transform:none;direction:ltr;block-progression:tb;writing-mode:lr-tb;text-anchor:start;baseline-shift:baseline;color:#000000;fill:#2781ff;fill-opacity:1;stroke:none;stroke-width:5;marker:none;visibility:visible;display:inline;overflow:visible;enable-background:accumulate;font-family:Sans;-inkscape-font-specification:Sans"
       d="M 10 7.5 C 5.8882431 7.5 2.5 10.8882 2.5 15 L 2.5 25 C 2.5 29.1118 5.8882431 32.5 10 32.5 L 30 32.5 C 34.111757 32.5 37.5 29.1118 37.5 25 L 37.5 15 C 37.5 10.8882 34.111757 7.5 30 7.5 L 21.625 7.5 L 22.34375 8.21875 L 24.09375 10 L 22.34375 11.75 L 21.59375 12.5 L 30 12.5 C 31.428243 12.5 32.5 13.5718 32.5 15 L 32.5 25 C 32.5 26.4282 31.428243 27.5 30 27.5 L 10 27.5 C 8.5717569 27.5 7.5 26.4282 7.5 25 L 7.5 15 C 7.5 13.5718 8.5717569 12.5 10 12.5 L 14.5 12.5 L 17 10 L 14.53125 7.5 L 10 7.5 z "
       transform="translate(0,1012.3622)"
       id="rect8343" />
    <g
       style="fill:#1d76ff;fill-opacity:1"
       id="g8349"
       transform="translate(4.28125,-4.5312)" />
  </g>
</svg>
