<?xml version="1.0" encoding="UTF-8" standalone="no"?>
<!-- Created with Inkscape (http://www.inkscape.org/) -->

<svg
   xmlns:dc="http://purl.org/dc/elements/1.1/"
   xmlns:cc="http://creativecommons.org/ns#"
   xmlns:rdf="http://www.w3.org/1999/02/22-rdf-syntax-ns#"
   xmlns:svg="http://www.w3.org/2000/svg"
   xmlns="http://www.w3.org/2000/svg"
   xmlns:xlink="http://www.w3.org/1999/xlink"
   xmlns:sodipodi="http://sodipodi.sourceforge.net/DTD/sodipodi-0.dtd"
   xmlns:inkscape="http://www.inkscape.org/namespaces/inkscape"
   version="1.1"
   width="204"
   height="185.87712"
   id="svg2"
   inkscape:version="0.48.5 r10040"
   sodipodi:docname="cover.svg"
   inkscape:export-filename="/home/sander/projects/xbmcremote/kodimote/apps/sailfish/qml/cover/background.png"
   inkscape:export-xdpi="90.070885"
   inkscape:export-ydpi="90.070885">
  <sodipodi:namedview
     pagecolor="#000000"
     bordercolor="#666666"
     borderopacity="1"
     objecttolerance="10"
     gridtolerance="10"
     guidetolerance="10"
     inkscape:pageopacity="0"
     inkscape:pageshadow="2"
     inkscape:window-width="1801"
     inkscape:window-height="1064"
     id="namedview4519"
     showgrid="false"
     inkscape:zoom="2.6074563"
     inkscape:cx="-45.653416"
     inkscape:cy="142.44224"
     inkscape:window-x="-7"
     inkscape:window-y="-10"
     inkscape:window-maximized="1"
     inkscape:current-layer="svg2"
     fit-margin-top="0"
     fit-margin-left="0"
     fit-margin-right="0"
     fit-margin-bottom="0">
    <inkscape:grid
       type="xygrid"
       id="grid4542"
       empspacing="5"
       visible="true"
       enabled="true"
       snapvisiblegridlinesonly="true"
       originx="0px"
       originy="23.485665px" />
  </sodipodi:namedview>
  <defs
     id="defs4">
    <linearGradient
       id="linearGradient3786">
      <stop
         id="stop3788"
         style="stop-color:#264c91;stop-opacity:1"
         offset="0" />
      <stop
         id="stop3796"
         style="stop-color:#366eb5;stop-opacity:1"
         offset="0.38999999" />
      <stop
         id="stop3794"
         style="stop-color:#4288cf;stop-opacity:1"
         offset="0.60000002" />
      <stop
         id="stop3790"
         style="stop-color:#4791d9;stop-opacity:1"
         offset="1" />
    </linearGradient>
    <linearGradient
       x1="255.82761"
       y1="504.32233"
       x2="277.84488"
       y2="504.32233"
       id="linearGradient3975"
       xlink:href="#linearGradient3823"
       gradientUnits="userSpaceOnUse" />
    <linearGradient
       id="linearGradient3823">
      <stop
         id="stop3825"
         style="stop-color:#ffffff;stop-opacity:1"
         offset="0" />
      <stop
         id="stop3833"
         style="stop-color:#ffffff;stop-opacity:0.78431374"
         offset="0.5" />
      <stop
         id="stop3831"
         style="stop-color:#fffeff;stop-opacity:0.39215687"
         offset="0.75" />
      <stop
         id="stop3827"
         style="stop-color:#ffffff;stop-opacity:1"
         offset="1" />
    </linearGradient>
    <linearGradient
       x1="35"
       y1="64"
       x2="35"
       y2="0"
       id="linearGradient3792"
       xlink:href="#linearGradient3786"
       gradientUnits="userSpaceOnUse" />
  </defs>
  <metadata
     id="metadata7">
    <rdf:RDF>
      <cc:Work
         rdf:about="">
        <dc:format>image/svg+xml</dc:format>
        <dc:type
           rdf:resource="http://purl.org/dc/dcmitype/StillImage" />
        <dc:title></dc:title>
      </cc:Work>
    </rdf:RDF>
  </metadata>
  <rect
     style="opacity:0.97000001999999996;fill:none;fill-opacity:1;stroke:none"
     id="rect3983"
     y="-0.90239966"
     x="5.0223246"
     height="190.87039"
     width="200.84181" />
  <g
     transform="translate(-116.97789,-196.69887)"
     id="g3191">
    <path
       style="fill:#ffffff;fill-rule:evenodd;fill-opacity:0.23584905"
       inkscape:connector-curvature="0"
       id="path3193"
       d="m 313.057,291.184 c -0.602,1.953 -1.921,3.383 -3.333,4.79 -9.465,9.433 -18.9,18.897 -28.345,28.349 -3.403,3.405 -7.04,3.396 -10.457,-0.024 -9.748,-9.755 -19.497,-19.51 -29.24,-29.267 -3.32,-3.323 -3.318,-6.953 0.01,-10.283 9.799,-9.815 19.601,-19.625 29.404,-29.433 3.189,-3.192 6.937,-3.194 10.126,-0.004 9.503,9.505 18.992,19.023 28.513,28.512 1.413,1.407 2.728,2.842 3.323,4.797 v 2.563 z"
       clip-rule="evenodd" />
    <path
       style="fill:#ffffff;fill-rule:evenodd;fill-opacity:0.23529412"
       inkscape:connector-curvature="0"
       id="path3195"
       d="m 219.101,382.575 c -1.944,-0.617 -3.352,-1.962 -4.753,-3.372 -9.425,-9.474 -18.878,-18.916 -28.322,-28.371 -3.379,-3.384 -3.382,-6.993 -0.011,-10.369 9.773,-9.781 19.547,-19.563 29.324,-29.343 3.25,-3.251 6.974,-3.264 10.206,-0.029 9.775,9.779 19.549,19.563 29.321,29.347 3.357,3.362 3.366,7.045 0.024,10.389 -9.526,9.538 -19.066,19.062 -28.57,28.617 -1.36,1.366 -2.759,2.596 -4.655,3.132 h -2.564 z"
       clip-rule="evenodd" />
    <path
       style="fill:#ffffff;fill-rule:evenodd;fill-opacity:0.23529412"
       inkscape:connector-curvature="0"
       id="path3197"
       d="m 184.799,266.464 c 0,-10.877 0.098,-21.754 -0.063,-32.628 -0.045,-3.147 0.706,-5.605 3.11,-7.682 1.932,-1.671 3.647,-3.599 5.458,-5.414 7.166,-7.173 14.329,-14.344 21.497,-21.515 3.37,-3.37 7.006,-3.367 10.374,0.002 9.749,9.751 19.495,19.505 29.243,29.259 3.349,3.353 3.346,7.037 -0.002,10.389 -11.527,11.543 -23.059,23.082 -34.589,34.621 -10.182,10.194 -20.362,20.386 -30.545,30.576 -1.887,1.889 -3.559,1.448 -4.244,-1.169 -0.211,-0.81 -0.229,-1.685 -0.229,-2.532 -0.014,-11.301 -0.01,-22.605 -0.01,-33.907"
       clip-rule="evenodd" />
    <path
       style="fill:#ffffff;fill-rule:evenodd;fill-opacity:0.23529412"
       inkscape:connector-curvature="0"
       id="path3199"
       d="m 161.487,290.03 c 0,9.98 0.014,19.964 -0.021,29.944 -0.004,0.947 -0.154,1.951 -0.494,2.832 -0.666,1.732 -1.916,1.947 -3.224,0.641 -4.591,-4.582 -9.169,-9.179 -13.75,-13.768 -5.296,-5.304 -10.594,-10.609 -15.887,-15.917 -2.191,-2.197 -2.2,-5.245 -0.018,-7.453 9.748,-9.859 19.498,-19.717 29.252,-29.574 0.645,-0.651 1.252,-1.535 2.349,-1.121 1.047,0.396 1.461,1.341 1.609,2.388 0.094,0.649 0.167,1.31 0.168,1.965 0.01,10.021 0.006,20.041 0.006,30.063 h 0.01 z"
       clip-rule="evenodd" />
  </g>
</svg>
